<?xml version="1.0" standalone="no"?>
<!DOCTYPE svg PUBLIC "-//W3C//DTD SVG 20010904//EN"
 "http://www.w3.org/TR/2001/REC-SVG-20010904/DTD/svg10.dtd">
<svg version="1.0" xmlns="http://www.w3.org/2000/svg"
 width="1880.000000pt" height="1459.000000pt" viewBox="0 0 1880.000000 1459.000000"
 preserveAspectRatio="xMidYMid meet">

<g transform="translate(0.000000,1459.000000) scale(0.100000,-0.100000)"
fill="#000000" stroke="none">
<path d="M7490 14539 c-25 -5 -92 -13 -150 -18 -102 -9 -173 -22 -208 -40 -52
-26 -96 -41 -123 -41 -17 0 -40 -6 -52 -12 -16 -10 -111 -13 -373 -13 -273 0
-355 -3 -367 -13 -9 -7 -42 -16 -74 -19 -32 -2 -72 -11 -90 -19 -17 -8 -35
-14 -40 -14 -5 0 -45 -18 -89 -41 -141 -73 -132 -66 -209 -150 -8 -9 -15 -20
-15 -26 0 -6 -6 -16 -14 -22 -8 -7 -17 -30 -21 -51 -4 -21 -13 -44 -21 -51 -8
-7 -14 -30 -14 -58 0 -29 -7 -57 -20 -76 -13 -20 -20 -47 -20 -81 0 -31 -5
-56 -14 -63 -7 -6 -16 -32 -19 -58 -3 -26 -12 -52 -21 -58 -9 -7 -16 -26 -16
-43 0 -32 -47 -132 -61 -132 -5 0 -9 -6 -9 -14 0 -12 -20 -39 -65 -87 -8 -9
-15 -19 -15 -22 0 -20 -114 -131 -180 -177 -13 -8 -28 -21 -36 -27 -7 -7 -17
-13 -22 -13 -6 0 -12 -7 -16 -15 -3 -8 -10 -15 -16 -15 -6 0 -17 -6 -24 -12
-8 -7 -24 -20 -36 -28 -12 -8 -34 -25 -48 -38 -15 -12 -41 -32 -59 -45 -18
-12 -37 -32 -42 -44 -6 -13 -15 -23 -21 -23 -5 0 -10 -6 -10 -14 0 -7 -9 -25
-20 -39 -11 -14 -20 -40 -20 -59 0 -18 -7 -44 -16 -56 -11 -17 -18 -59 -23
-150 -4 -70 -12 -137 -19 -149 -7 -12 -12 -46 -12 -75 0 -34 -7 -67 -20 -91
-11 -20 -20 -52 -20 -69 0 -18 -9 -46 -20 -63 -11 -16 -20 -46 -20 -66 0 -20
-7 -42 -15 -49 -8 -7 -15 -29 -15 -50 0 -22 -8 -48 -20 -63 -11 -14 -20 -32
-20 -41 0 -9 -9 -25 -20 -36 -11 -11 -20 -29 -20 -40 0 -11 -7 -23 -15 -26 -8
-4 -15 -14 -15 -24 0 -9 -9 -25 -20 -35 -11 -10 -20 -25 -20 -32 0 -8 -9 -26
-20 -40 -11 -14 -20 -32 -20 -39 0 -8 -7 -14 -15 -14 -8 0 -15 -9 -15 -20 0
-11 -9 -28 -20 -37 -11 -10 -20 -23 -20 -30 0 -7 -9 -22 -20 -33 -11 -11 -20
-29 -20 -40 0 -10 -6 -23 -13 -27 -7 -4 -18 -20 -24 -35 -7 -16 -17 -28 -23
-28 -5 0 -10 -8 -10 -18 0 -11 -9 -27 -20 -37 -11 -10 -20 -28 -20 -40 0 -13
-7 -25 -15 -29 -9 -3 -15 -18 -15 -34 0 -16 -9 -41 -20 -55 -11 -14 -20 -36
-20 -50 0 -13 -9 -32 -20 -42 -13 -12 -20 -31 -20 -55 0 -21 -6 -43 -14 -49
-9 -8 -16 -49 -21 -134 -3 -67 -13 -156 -21 -197 -8 -41 -14 -127 -15 -190 0
-63 -4 -137 -9 -165 -22 -134 -39 -208 -49 -218 -6 -6 -11 -23 -11 -38 0 -14
-9 -38 -20 -52 -11 -14 -20 -33 -20 -42 0 -9 -9 -28 -20 -42 -11 -14 -20 -34
-20 -44 0 -10 -6 -22 -13 -26 -7 -4 -18 -20 -24 -35 -7 -16 -17 -28 -23 -28
-5 0 -10 -6 -10 -13 0 -7 -9 -20 -20 -30 -11 -9 -20 -24 -20 -32 0 -8 -5 -15
-11 -15 -5 0 -15 -13 -20 -30 -6 -16 -15 -30 -20 -30 -5 0 -14 -11 -19 -25 -5
-14 -17 -28 -25 -31 -8 -4 -15 -10 -15 -15 0 -5 -16 -32 -35 -59 -19 -27 -35
-59 -35 -69 0 -11 -6 -26 -13 -33 -14 -14 -35 -50 -61 -105 -9 -17 -20 -34
-26 -38 -5 -3 -10 -20 -10 -37 0 -16 -9 -41 -20 -55 -14 -18 -20 -41 -20 -75
0 -27 -7 -65 -16 -86 -25 -55 -25 -488 -1 -523 10 -14 17 -43 17 -70 0 -32 6
-53 20 -69 11 -13 20 -36 20 -52 0 -16 6 -31 14 -34 8 -3 18 -18 21 -34 3 -16
13 -31 21 -34 8 -3 14 -14 14 -24 0 -10 9 -27 20 -37 11 -10 20 -24 20 -32 0
-7 16 -36 35 -63 19 -27 35 -54 35 -58 0 -5 40 -50 90 -101 49 -50 93 -103 96
-117 9 -36 -2 -103 -20 -123 -9 -10 -16 -33 -16 -52 0 -19 -9 -51 -20 -72 -12
-22 -20 -56 -20 -85 0 -26 -6 -56 -14 -67 -7 -11 -15 -52 -18 -90 -3 -39 -12
-85 -21 -102 -10 -18 -17 -52 -17 -77 0 -25 -9 -68 -20 -96 -13 -34 -20 -74
-20 -123 0 -52 -5 -79 -17 -97 -15 -21 -17 -57 -18 -296 0 -244 -2 -274 -18
-291 -9 -11 -17 -35 -17 -54 0 -19 -9 -47 -20 -64 -11 -16 -20 -42 -20 -56 0
-14 -7 -34 -15 -45 -8 -10 -15 -33 -15 -50 0 -17 -9 -43 -20 -57 -12 -15 -20
-40 -20 -65 0 -22 -9 -59 -20 -83 -11 -26 -20 -66 -20 -96 0 -29 -6 -70 -14
-90 -8 -21 -17 -64 -21 -95 -3 -31 -13 -62 -21 -69 -9 -8 -14 -32 -14 -74 0
-35 -9 -92 -20 -127 -17 -56 -20 -92 -20 -308 0 -228 2 -247 20 -275 11 -16
20 -43 20 -58 0 -15 6 -30 14 -33 8 -3 18 -18 21 -32 3 -15 17 -40 31 -57 l26
-30 -7 53 -6 54 63 -46 c171 -125 396 -285 446 -319 88 -58 362 -222 522 -312
80 -44 154 -86 165 -93 52 -30 402 -216 590 -312 286 -146 679 -326 960 -438
448 -179 607 -241 687 -267 40 -12 141 -47 223 -77 237 -86 801 -267 1005
-324 408 -112 553 -147 850 -203 464 -88 572 -100 928 -108 l293 -6 -33 -34
c-24 -24 -34 -30 -41 -20 -6 8 -7 7 -4 -5 3 -9 -3 -24 -15 -35 -19 -17 -95
-115 -215 -276 -28 -38 -57 -83 -64 -99 -10 -25 -9 -31 7 -43 25 -19 27 -19
58 6 30 24 88 107 130 189 50 97 139 244 174 287 30 38 38 43 75 43 47 0 173
32 219 56 67 35 178 161 178 202 0 8 70 82 155 164 85 82 178 179 207 216 29
37 55 69 59 72 15 12 102 155 152 251 78 149 154 414 172 604 9 92 -7 188 -38
229 l-25 32 23 26 c29 34 23 68 -12 68 -21 0 -23 3 -18 23 11 35 32 64 80 108
25 23 62 69 83 103 50 78 172 297 199 356 60 131 121 269 133 300 7 19 19 49
26 67 8 17 14 34 14 38 0 4 17 49 37 99 63 158 356 1015 372 1091 5 22 35 128
66 235 31 107 70 256 85 330 41 190 189 954 214 1105 7 39 18 80 24 92 7 12 9
29 6 37 -4 12 4 20 30 31 46 19 47 19 41 -8 -5 -18 0 -28 21 -42 36 -23 150
-17 216 13 64 28 135 104 169 179 80 174 184 495 234 718 15 66 28 121 30 123
2 2 35 -13 74 -32 39 -20 71 -34 71 -31 0 2 -33 21 -72 41 -40 20 -74 37 -74
38 -1 0 5 42 12 91 16 111 18 324 3 396 -6 30 -11 59 -13 65 -2 11 -15 27 -57
73 -21 24 -39 30 -108 40 -45 7 -90 9 -101 6 -14 -4 -20 -2 -20 8 0 8 -18 26
-39 41 -36 25 -51 28 -183 37 -184 12 -222 21 -544 119 l-71 22 4 47 c3 25 15
109 28 186 29 169 43 308 42 392 -1 34 -3 60 -5 59 -8 -8 -63 -309 -87 -471
-14 -99 -28 -185 -30 -191 -2 -8 -78 12 -217 57 -229 74 -1091 360 -1095 363
-2 2 14 52 36 112 21 60 43 129 50 154 18 64 95 322 116 385 6 16 3 16 -14 -5
-11 -14 -23 -34 -27 -45 -10 -35 -75 -207 -109 -290 -37 -90 -72 -202 -80
-257 -3 -21 -10 -38 -15 -38 -5 0 -186 58 -402 129 -431 141 -849 276 -888
286 -43 12 -405 128 -409 132 -6 5 15 63 56 151 18 40 38 94 45 120 18 77 67
231 104 327 33 87 46 150 19 90 -14 -29 -14 -29 -15 -6 0 45 -14 17 -145 -291
-53 -126 -67 -172 -72 -228 -3 -41 -2 -75 4 -82 11 -14 -10 -78 -25 -78 -5 0
-73 21 -153 46 -79 25 -184 58 -234 72 -350 99 -1524 478 -1545 499 -9 9 73
152 117 202 57 65 174 143 260 172 64 23 80 24 303 23 261 -1 297 -7 695 -101
105 -24 222 -50 260 -57 59 -10 438 -93 700 -152 39 -9 162 -41 275 -71 638
-170 862 -253 1080 -402 109 -74 199 -120 320 -164 47 -17 127 -57 179 -90
128 -81 326 -171 476 -217 72 -21 246 -39 391 -40 96 0 182 -24 295 -80 41
-21 109 -49 150 -63 41 -13 140 -50 220 -82 l146 -57 -33 -104 c-55 -174 -79
-363 -54 -428 14 -37 26 -32 51 17 29 56 48 140 59 262 12 130 31 226 47 232
7 3 34 0 60 -6 99 -21 298 -32 370 -21 243 39 426 161 531 355 37 69 72 192
81 285 15 166 -19 373 -83 495 -9 17 -16 37 -16 45 0 9 -4 20 -9 25 -6 6 -22
32 -36 59 -29 54 -90 133 -119 155 -11 8 -27 22 -36 30 -8 9 -31 29 -50 45
-48 38 -183 161 -239 216 -80 79 -145 129 -201 157 -15 7 -123 83 -147 103 -7
5 -21 10 -32 10 -11 0 -26 7 -35 15 -8 8 -20 15 -26 15 -7 0 -24 6 -38 14 -26
13 -58 28 -134 60 -20 9 -43 16 -52 16 -9 0 -16 4 -16 9 0 5 -12 12 -27 15
-20 6 -199 130 -267 187 -6 5 -22 19 -36 30 -46 37 -255 246 -290 289 -19 24
-44 54 -55 66 -11 12 -38 44 -60 70 -22 26 -64 71 -92 100 -29 29 -53 56 -53
60 0 3 -22 27 -48 52 -89 86 -182 172 -186 172 -7 0 -68 54 -125 110 -31 31
-76 71 -101 90 -25 19 -48 38 -51 43 -7 10 -36 27 -99 58 -25 12 -47 24 -50
28 -3 3 -27 17 -53 31 -27 14 -67 35 -90 47 -23 12 -49 22 -57 23 -8 0 -24 7
-34 15 -11 8 -28 15 -38 15 -16 0 -65 19 -110 41 -10 5 -26 9 -35 9 -10 0 -31
7 -47 15 -33 17 -265 22 -282 5 -5 -5 -32 -13 -59 -16 -28 -4 -52 -10 -55 -13
-3 -4 -25 -12 -50 -19 -25 -7 -67 -19 -95 -28 -27 -8 -63 -18 -80 -21 -16 -3
-39 -12 -50 -19 -11 -8 -29 -14 -40 -14 -11 0 -29 -7 -39 -15 -11 -8 -28 -15
-38 -15 -10 0 -18 -4 -18 -9 0 -5 -10 -13 -22 -16 -13 -4 -46 -18 -75 -31 -28
-13 -70 -24 -92 -24 -40 0 -99 25 -114 48 -5 7 -25 29 -46 50 -20 20 -54 60
-76 87 -67 87 -286 295 -309 295 -4 0 -25 12 -49 27 -61 40 -80 51 -97 59 -34
15 -247 116 -273 129 -16 8 -37 15 -47 15 -10 0 -31 7 -46 15 -16 8 -36 15
-44 15 -9 0 -20 4 -25 8 -14 12 -94 40 -138 48 -20 3 -40 10 -43 15 -3 5 -24
9 -47 9 -23 0 -55 7 -71 15 -15 8 -45 15 -65 15 -20 1 -47 7 -61 15 -14 8 -40
14 -58 15 -18 0 -49 7 -69 15 -19 8 -63 15 -97 15 -34 0 -67 5 -73 11 -13 13
-130 27 -333 39 -85 5 -171 14 -190 19 -19 6 -37 10 -40 10 -3 -1 -25 -5 -50
-10z m290 -89 c255 -15 677 -99 938 -186 224 -75 500 -206 637 -303 76 -54
177 -153 286 -282 54 -64 115 -130 136 -146 50 -40 117 -73 146 -73 12 0 67
23 121 51 97 51 160 76 376 151 142 49 211 65 320 73 104 8 174 -6 335 -70
255 -99 391 -181 576 -347 148 -133 446 -431 534 -533 138 -161 203 -228 329
-343 212 -193 275 -235 505 -338 102 -46 204 -94 226 -106 75 -41 260 -186
381 -300 66 -62 153 -140 193 -173 124 -102 197 -217 254 -400 94 -300 44
-554 -145 -730 -137 -127 -295 -183 -488 -171 -96 5 -236 28 -248 40 -2 3 3
34 12 70 30 120 13 129 -29 15 -12 -35 -29 -65 -37 -67 -23 -4 -404 134 -546
199 -116 52 -156 60 -377 70 -237 11 -339 28 -485 84 -169 64 -214 91 -242
141 -27 50 -110 114 -238 186 -41 23 -90 58 -109 77 -19 20 -31 28 -28 19 9
-26 -2 -22 -58 17 -99 70 -123 84 -255 148 -126 62 -510 196 -610 213 -19 3
-105 25 -190 49 -202 57 -343 92 -438 110 -42 8 -178 37 -302 65 -124 28 -261
57 -305 65 -44 7 -199 41 -345 74 -146 33 -305 65 -355 71 -49 5 -128 14 -175
20 -185 22 -403 5 -534 -40 -99 -34 -219 -122 -296 -219 -64 -80 -94 -140
-110 -216 -6 -33 -27 -91 -45 -130 -55 -116 -66 -187 -75 -505 l-7 -285 -32
-92 c-33 -93 -98 -387 -106 -478 -6 -66 -16 -128 -23 -139 -3 -5 -6 -21 -8
-35 -8 -88 -38 -129 -72 -98 -10 9 -22 14 -25 10 -13 -12 -7 -19 28 -32 19 -7
35 -18 35 -26 0 -28 -94 -94 -179 -125 -115 -42 -159 -66 -238 -124 -182 -137
-291 -349 -363 -706 -50 -250 -111 -495 -162 -660 -11 -36 -51 -126 -89 -200
-165 -327 -383 -499 -684 -541 -82 -11 -328 2 -385 21 -75 25 -228 95 -320
147 -144 81 -150 85 -150 108 0 15 -2 17 -9 7 -6 -11 -22 -4 -69 31 -34 25
-81 55 -106 66 -55 27 -167 129 -208 190 -17 25 -43 60 -59 76 -86 94 -214
328 -262 481 -75 238 -55 488 61 753 43 98 79 157 264 426 203 297 245 424
283 870 23 259 42 400 65 482 19 70 155 359 183 392 35 39 236 397 285 506
106 232 165 460 202 770 13 111 25 176 39 202 26 53 96 115 231 208 202 139
284 232 389 442 53 106 101 260 145 466 30 140 56 196 115 248 106 94 218 142
417 180 108 21 149 23 444 24 l325 0 140 49 c185 65 323 77 665 56z m-430
-3238 c25 -10 82 -31 128 -46 55 -19 80 -32 75 -39 -17 -31 -100 -134 -150
-187 -30 -33 -51 -60 -46 -60 18 0 167 169 218 248 1 1 56 -18 121 -42 155
-58 491 -173 574 -197 36 -10 155 -48 265 -84 110 -35 300 -97 423 -136 125
-41 222 -77 222 -84 0 -16 -91 -143 -123 -173 l-24 -23 4 25 c8 40 -14 31 -27
-11 -7 -21 -64 -168 -128 -328 -63 -159 -125 -326 -138 -370 -12 -44 -46 -159
-74 -255 -49 -168 -75 -320 -54 -320 6 0 29 19 52 43 32 32 51 66 76 133 18
49 42 109 54 134 51 114 132 418 205 777 l23 111 62 67 c34 36 76 92 92 125
16 32 33 61 38 64 4 3 100 -26 213 -63 112 -38 305 -102 429 -142 124 -40 315
-104 424 -141 109 -37 204 -68 210 -68 6 0 94 -30 196 -66 102 -36 208 -71
235 -79 28 -8 196 -64 375 -126 179 -61 361 -122 405 -136 44 -14 168 -53 275
-89 107 -35 250 -79 316 -98 67 -20 134 -40 149 -46 27 -10 27 -11 9 -31 -10
-11 -43 -37 -74 -58 l-57 -39 -79 76 c-90 87 -164 135 -164 106 0 -21 185
-204 207 -204 13 0 12 -5 -7 -25 -23 -25 -16 -37 8 -13 22 22 13 -11 -87 -321
-55 -168 -113 -351 -130 -406 -58 -195 -102 -415 -83 -415 18 1 95 135 135
235 108 267 167 493 187 722 18 202 22 214 86 258 30 21 66 51 79 67 l25 29
107 -29 c102 -28 191 -43 344 -58 54 -5 74 -3 113 15 40 17 59 20 122 14 121
-10 144 -42 144 -203 0 -129 -18 -270 -57 -429 -39 -161 -118 -407 -161 -503
-16 -35 -44 -97 -62 -138 -18 -41 -42 -89 -55 -105 -26 -35 -113 -125 -161
-167 -27 -24 -31 -25 -27 -9 9 34 -33 50 -177 66 -74 9 -193 22 -265 31 -71 8
-168 19 -215 24 -158 17 -511 96 -940 210 -140 37 -280 74 -310 80 -30 7 -147
42 -260 77 -113 34 -211 63 -219 63 -16 0 -357 109 -649 207 -106 36 -208 69
-225 73 -28 7 -331 111 -802 275 -82 29 -206 73 -275 99 -69 26 -156 58 -195
71 -38 13 -131 46 -205 75 -394 150 -522 200 -693 266 -104 41 -192 74 -197
74 -5 0 -53 17 -106 38 l-96 37 7 85 c12 160 46 286 107 401 92 170 221 599
220 729 0 124 -47 261 -100 296 -19 13 -22 21 -16 47 3 18 8 35 11 39 4 7 45
-7 143 -50z m-125 -197 c21 -49 45 -102 53 -117 15 -26 13 -32 -54 -171 l-69
-145 -8 51 c-16 97 13 503 33 480 4 -5 24 -48 45 -98z m-154 -1504 c63 -26
125 -52 139 -56 27 -8 202 -82 288 -121 29 -13 56 -24 60 -24 4 0 84 -31 177
-69 365 -149 546 -221 555 -221 5 0 56 -18 112 -41 137 -55 447 -169 633 -234
83 -28 207 -73 277 -98 70 -26 131 -47 137 -47 5 0 97 -31 203 -68 277 -98
1104 -362 1133 -362 6 0 129 -33 275 -74 146 -40 294 -81 330 -90 36 -9 155
-39 264 -67 110 -27 227 -54 260 -58 34 -5 156 -25 271 -45 212 -37 359 -48
443 -33 l44 8 -7 -32 c-4 -17 -31 -82 -60 -144 -58 -123 -116 -273 -140 -357
-8 -29 -28 -98 -45 -153 -57 -183 -110 -370 -110 -385 0 -54 -374 -1206 -500
-1540 -17 -47 -47 -128 -65 -181 -31 -90 -108 -283 -180 -449 -18 -41 -64
-133 -102 -205 -39 -71 -88 -164 -110 -205 -23 -42 -46 -103 -52 -137 -11 -56
-10 -66 8 -101 18 -36 19 -40 3 -76 -16 -36 -22 -39 -132 -76 -379 -125 -455
-140 -700 -140 -91 0 -171 4 -179 9 -12 8 -6 25 34 93 172 293 327 589 390
742 18 45 60 145 94 224 33 78 61 146 61 150 0 5 27 75 60 158 33 82 67 169
75 194 8 25 35 99 60 165 54 139 89 240 254 730 67 198 121 367 121 376 0 9 7
36 16 60 62 173 275 977 273 1031 -1 27 -6 11 -83 -277 -107 -397 -142 -513
-266 -880 -37 -110 -71 -213 -75 -229 -3 -16 -29 -90 -57 -165 -28 -75 -72
-197 -98 -271 -58 -164 -112 -306 -191 -506 -32 -83 -70 -182 -83 -220 -13
-38 -32 -89 -43 -114 -12 -25 -49 -112 -83 -195 -53 -128 -162 -371 -204 -455
-67 -132 -191 -366 -217 -412 -19 -31 -51 -88 -72 -128 l-38 -71 -62 7 c-96
10 -436 61 -595 89 -316 55 -873 208 -1702 465 -74 23 -200 62 -280 87 -260
80 -405 130 -403 139 1 5 27 79 56 164 30 85 88 259 130 385 70 215 118 363
296 921 39 122 71 227 71 235 0 7 31 115 69 239 87 283 155 513 194 655 16 61
60 214 97 340 38 127 75 255 83 285 8 30 32 109 52 175 21 66 51 168 66 227
34 126 203 653 231 717 10 24 16 46 13 49 -2 3 -8 -4 -11 -14 -4 -10 -13 -35
-21 -54 -8 -19 -34 -91 -58 -160 -24 -69 -62 -174 -85 -235 -23 -60 -45 -123
-49 -140 -4 -16 -38 -120 -74 -230 -112 -337 -289 -896 -339 -1070 -11 -38
-44 -146 -73 -240 -29 -93 -61 -197 -71 -230 -25 -88 -153 -496 -234 -750
-180 -557 -213 -664 -275 -878 -36 -125 -73 -262 -81 -304 -8 -42 -16 -78 -18
-80 -6 -7 -147 35 -326 95 -96 32 -213 71 -260 85 -97 29 -446 148 -595 203
-55 20 -154 56 -220 80 -692 249 -1037 436 -1635 883 -181 135 -420 361 -420
397 0 12 5 26 10 29 17 11 12 38 -6 31 -13 -5 -14 -3 -6 7 15 17 68 203 91
319 11 51 38 201 61 333 34 197 131 631 146 657 2 4 42 -22 88 -57 46 -34 92
-67 101 -72 14 -8 15 -15 6 -49 -6 -21 -10 -50 -10 -64 1 -15 7 -3 14 28 7 30
15 56 18 58 3 3 29 -10 58 -29 30 -19 79 -47 109 -62 30 -15 56 -28 57 -29 1
-1 -11 -53 -28 -115 -17 -62 -28 -115 -26 -117 2 -3 10 17 16 43 7 26 21 78
33 115 l20 67 36 -18 c21 -10 61 -26 90 -37 52 -18 53 -20 47 -49 -3 -16 -10
-52 -15 -80 -5 -27 -27 -129 -48 -225 -71 -315 -140 -743 -148 -915 l-4 -100
19 55 c11 30 27 91 35 135 59 312 231 1101 246 1125 5 8 39 6 124 -7 115 -17
117 -18 111 -42 -14 -56 -13 -81 1 -30 l15 56 97 6 c184 11 325 57 447 147 31
23 58 40 60 38 2 -2 -12 -68 -31 -147 -19 -79 -33 -148 -31 -154 1 -5 20 64
41 154 l39 164 71 75 c141 149 223 291 321 556 26 71 127 467 205 810 29 126
110 274 198 362 83 83 168 137 256 163 149 45 235 103 282 194 16 30 32 55 35
55 4 0 58 -22 120 -49z m-3315 -3446 c79 -107 224 -256 364 -374 63 -53 116
-100 118 -104 2 -5 -23 -26 -55 -47 -32 -21 -69 -48 -83 -59 -24 -19 -24 -21
-4 -21 11 0 57 24 102 54 80 52 82 53 99 34 56 -62 475 -351 652 -449 87 -49
131 -79 135 -93 3 -12 6 -60 6 -107 0 -106 21 -179 59 -211 l28 -24 -55 -90
c-84 -135 -203 -419 -233 -559 -38 -175 -48 -258 -37 -308 5 -26 14 -47 18
-47 34 0 135 286 205 580 26 107 57 233 70 280 12 47 26 97 29 113 5 22 12 27
38 27 25 0 43 12 93 63 33 34 75 79 93 100 l32 38 128 -54 c158 -68 439 -180
512 -205 30 -11 128 -47 217 -80 89 -34 166 -62 172 -62 5 0 65 -20 133 -45
199 -74 241 -88 493 -170 132 -43 323 -106 425 -141 102 -34 205 -68 230 -74
25 -6 135 -40 245 -75 110 -35 279 -88 375 -117 l175 -54 20 -89 c40 -176 47
-195 86 -229 20 -19 44 -38 54 -44 18 -9 17 -13 -4 -73 -35 -97 -87 -221 -148
-352 -73 -159 -208 -482 -222 -532 -17 -63 -15 -107 6 -103 25 5 87 91 132
183 49 101 119 291 136 370 7 33 38 156 69 273 31 117 56 215 56 217 0 2 13
-2 28 -7 16 -6 42 -8 58 -4 40 10 147 121 161 168 11 38 11 38 -15 32 -15 -4
-53 -23 -85 -42 l-57 -35 -63 18 c-85 25 -94 31 -120 73 -26 42 -67 138 -67
157 0 9 18 7 68 -7 262 -72 505 -137 552 -147 30 -6 129 -27 220 -46 225 -47
431 -82 575 -98 l120 -13 21 -81 c12 -45 29 -94 39 -110 l17 -29 -88 -144
c-48 -80 -140 -223 -204 -320 -64 -96 -146 -220 -182 -275 -74 -115 -198 -345
-198 -369 0 -21 -12 -21 -220 10 -96 14 -209 29 -250 34 -86 10 -254 44 -473
95 -83 20 -174 41 -202 46 -131 24 -861 238 -1185 346 -107 36 -225 74 -262
84 -63 18 -222 75 -513 185 -66 25 -158 59 -205 76 -107 38 -464 187 -695 290
-111 50 -683 334 -870 431 -251 132 -422 225 -477 261 -31 20 -59 36 -62 36
-9 0 -258 153 -371 228 -55 36 -130 86 -168 110 -37 24 -69 47 -72 51 -13 23
-24 428 -16 616 11 241 28 366 77 585 19 85 46 205 59 265 26 122 84 291 95
278 4 -4 33 -44 66 -88z m1590 -1180 c0 -6 -37 -29 -83 -51 l-84 -42 -25 55
c-22 51 -54 147 -54 164 0 10 245 -115 246 -126z m5994 -1331 c0 -39 -4 -93
-9 -120 -5 -27 -12 -69 -16 -94 -11 -74 -83 -284 -130 -378 -106 -210 -230
-371 -497 -644 l-163 -167 -70 -15 c-170 -37 -260 -48 -411 -53 -167 -6 -434
4 -434 16 0 3 21 29 47 56 56 61 155 210 215 325 25 47 59 110 76 141 18 30
50 100 73 155 96 233 142 349 155 395 8 27 16 49 17 49 1 0 31 -9 65 -20 125
-39 165 -26 279 91 47 49 92 133 78 147 -11 11 -87 -20 -142 -58 -57 -39 -59
-40 -169 -44 -124 -5 -126 -4 -173 74 -23 39 -26 50 -11 50 6 0 10 -8 10 -17
1 -16 2 -16 13 -3 10 14 32 15 162 7 181 -11 443 5 555 34 41 11 132 40 201
64 70 25 129 45 132 45 3 0 -5 -28 -19 -62 -35 -89 -29 -94 14 -13 48 91 51
95 92 126 l35 27 12 -22 c7 -11 12 -53 13 -92z"/>
<path d="M4476 7425 c-3 -9 -6 -22 -5 -28 0 -7 5 -1 10 12 5 13 8 26 5 28 -2
2 -6 -3 -10 -12z"/>
<path d="M8905 10615 c4 -11 17 -49 30 -85 29 -84 46 -120 56 -120 7 0 -4 33
-50 153 -6 16 -19 39 -27 50 -15 20 -16 20 -9 2z"/>
<path d="M10690 10038 c0 -18 7 -64 16 -103 8 -38 22 -101 30 -140 16 -72 41
-135 54 -135 31 0 5 180 -47 324 -30 87 -53 110 -53 54z"/>
<path d="M10978 9823 c-103 -105 -138 -147 -138 -168 0 -3 5 -3 10 0 15 9 14
5 -39 -106 -152 -323 -185 -401 -241 -573 -54 -163 -91 -329 -77 -342 8 -8 77
101 96 151 10 28 40 100 66 160 59 138 72 174 95 255 10 36 36 124 58 195 22
72 50 165 61 209 23 87 29 97 76 126 41 25 178 187 170 200 -4 6 -9 10 -13 10
-4 0 -60 -53 -124 -117z"/>
<path d="M6795 9168 c-177 -367 -235 -496 -307 -683 -17 -44 -57 -145 -89
-225 -32 -80 -76 -197 -97 -260 -22 -63 -58 -169 -81 -235 -50 -148 -166 -522
-182 -590 -6 -27 -42 -160 -79 -295 -168 -610 -347 -1453 -338 -1590 l3 -45
23 48 c23 48 70 226 91 342 15 81 127 560 208 885 36 146 70 288 76 315 5 28
36 145 68 260 31 116 69 255 83 310 23 93 84 294 120 394 9 24 16 50 16 58 0
26 262 747 337 928 25 61 63 153 85 205 21 52 53 122 70 155 41 82 99 217 95
221 -2 2 -48 -87 -102 -198z"/>
<path d="M6642 9278 c-14 -18 -46 -85 -35 -73 14 15 55 85 50 85 -2 0 -9 -6
-15 -12z"/>
<path d="M6970 9279 c0 -2 -9 -29 -21 -59 -11 -30 -17 -51 -13 -47 12 12 44
100 39 106 -3 2 -5 2 -5 0z"/>
<path d="M6546 9097 c-26 -51 -42 -85 -33 -77 17 18 91 159 86 164 -2 3 -26
-37 -53 -87z"/>
<path d="M7202 9088 c-12 -34 -20 -63 -18 -65 2 -2 14 24 26 57 12 33 21 62
19 65 -3 2 -14 -24 -27 -57z"/>
<path d="M6902 9105 c-7 -14 -12 -31 -12 -38 1 -7 7 3 16 22 17 39 13 54 -4
16z"/>
<path d="M7726 9005 c-9 -26 -7 -32 5 -12 6 10 9 21 6 23 -2 3 -7 -2 -11 -11z"/>
<path d="M6851 8954 c-12 -31 -20 -59 -18 -61 2 -2 14 22 26 53 12 31 20 59
18 61 -2 2 -14 -22 -26 -53z"/>
<path d="M6446 8913 c-18 -38 -56 -111 -83 -163 -68 -133 -166 -342 -198 -425
-16 -38 -45 -106 -65 -150 -21 -44 -51 -118 -68 -165 -17 -47 -49 -130 -72
-185 -39 -96 -179 -511 -235 -700 -15 -49 -46 -153 -69 -230 -40 -130 -62
-224 -50 -213 2 3 18 50 33 104 82 281 110 372 193 629 50 154 97 294 104 310
7 17 44 111 82 210 38 99 82 207 97 239 15 33 38 87 50 120 13 34 50 119 84
189 34 70 61 131 61 134 0 8 109 224 120 238 12 14 60 125 55 125 -3 0 -20
-30 -39 -67z"/>
<path d="M7161 8963 c-1 -6 -4 -20 -7 -30 -5 -17 -5 -17 6 0 6 10 9 23 6 30
-3 9 -5 9 -5 0z"/>
<path d="M7706 8955 c-9 -26 -7 -32 5 -12 6 10 9 21 6 23 -2 3 -7 -2 -11 -11z"/>
<path d="M7686 8905 c-9 -26 -7 -32 5 -12 6 10 9 21 6 23 -2 3 -7 -2 -11 -11z"/>
<path d="M6801 8824 c-12 -31 -20 -58 -18 -61 2 -2 14 22 25 54 12 31 20 59
18 61 -2 2 -14 -22 -25 -54z"/>
<path d="M7666 8862 c-12 -19 -47 -116 -38 -107 10 12 53 115 47 115 -2 0 -6
-4 -9 -8z"/>
<path d="M7101 8799 c-12 -35 -17 -59 -12 -54 11 12 42 107 37 112 -2 2 -13
-24 -25 -58z"/>
<path d="M7070 8727 c0 -3 -9 -30 -21 -59 -11 -29 -16 -48 -11 -43 14 15 44
97 37 103 -3 3 -5 2 -5 -1z"/>
<path d="M7820 8675 c-6 -14 -15 -37 -21 -52 -5 -16 -6 -23 -1 -18 12 13 43
95 37 95 -3 0 -10 -11 -15 -25z"/>
<path d="M8141 8559 c-7 -33 -10 -63 -8 -65 2 -3 10 23 16 57 7 33 10 63 8 65
-2 3 -10 -23 -16 -57z"/>
<path d="M7551 8578 c-5 -13 -20 -49 -34 -80 -14 -32 -24 -58 -21 -58 3 0 17
26 31 58 35 78 43 102 38 102 -3 0 -9 -10 -14 -22z"/>
<path d="M7015 8569 c-4 -6 -5 -12 -2 -15 2 -3 7 2 10 11 7 17 1 20 -8 4z"/>
<path d="M7000 8538 c0 -3 -7 -22 -15 -42 -8 -20 -13 -36 -10 -36 8 0 36 73
30 78 -3 3 -5 3 -5 0z"/>
<path d="M7756 8525 c-3 -9 -6 -22 -5 -28 0 -7 5 -1 10 12 5 13 8 26 5 28 -2
2 -6 -3 -10 -12z"/>
<path d="M8121 8464 c0 -11 3 -14 6 -6 3 7 2 16 -1 19 -3 4 -6 -2 -5 -13z"/>
<path d="M7936 8425 c-3 -9 -6 -22 -5 -28 0 -7 5 -1 10 12 5 13 8 26 5 28 -2
2 -6 -3 -10 -12z"/>
<path d="M8112 8420 c0 -14 2 -19 5 -12 2 6 2 18 0 25 -3 6 -5 1 -5 -13z"/>
<path d="M7716 8405 c-9 -26 -7 -32 5 -12 6 10 9 21 6 23 -2 3 -7 -2 -11 -11z"/>
<path d="M8761 8379 c-7 -22 -11 -43 -8 -45 2 -2 9 14 16 37 7 22 11 43 8 45
-2 2 -9 -14 -16 -37z"/>
<path d="M7161 8393 c-1 -6 -4 -20 -7 -30 -5 -17 -5 -17 6 0 6 10 9 23 6 30
-3 9 -5 9 -5 0z"/>
<path d="M7465 8389 c-4 -6 -5 -12 -2 -15 2 -3 7 2 10 11 7 17 1 20 -8 4z"/>
<path d="M8096 8354 c-4 -20 -5 -38 -3 -40 3 -3 8 11 11 32 4 20 5 38 3 40 -3
3 -8 -11 -11 -32z"/>
<path d="M7696 8355 c-9 -26 -7 -32 5 -12 6 10 9 21 6 23 -2 3 -7 -2 -11 -11z"/>
<path d="M7111 8249 c-11 -34 -19 -64 -17 -66 2 -2 13 24 25 58 11 34 19 64
17 66 -2 2 -13 -24 -25 -58z"/>
<path d="M7410 8254 c-21 -49 -26 -71 -9 -41 16 27 40 87 35 87 -3 0 -14 -21
-26 -46z"/>
<path d="M7667 8288 c-38 -95 -47 -121 -39 -113 12 13 53 117 48 122 -2 2 -6
-2 -9 -9z"/>
<path d="M8076 8264 c-4 -20 -5 -38 -3 -40 3 -3 8 11 11 32 4 20 5 38 3 40 -3
3 -8 -11 -11 -32z"/>
<path d="M10327 8250 c-4 -14 -6 -36 -6 -50 1 -18 4 -14 10 14 10 44 6 75 -4
36z"/>
<path d="M8711 8219 c-6 -18 -9 -34 -7 -36 2 -2 9 10 15 28 6 18 9 34 7 36 -2
2 -9 -10 -15 -28z"/>
<path d="M6681 8169 c-7 -38 -11 -72 -9 -75 3 -2 10 28 17 67 7 38 11 72 9 75
-3 2 -10 -28 -17 -67z"/>
<path d="M8061 8194 c0 -11 3 -14 6 -6 3 7 2 16 -1 19 -3 4 -6 -2 -5 -13z"/>
<path d="M7376 8173 c-6 -14 -5 -15 5 -6 7 7 10 15 7 18 -3 3 -9 -2 -12 -12z"/>
<path d="M8681 8139 c-6 -18 -9 -34 -7 -36 2 -2 9 10 15 28 6 18 9 34 7 36 -2
2 -9 -10 -15 -28z"/>
<path d="M8051 8144 c0 -11 3 -14 6 -6 3 7 2 16 -1 19 -3 4 -6 -2 -5 -13z"/>
<path d="M10311 8144 c0 -11 3 -14 6 -6 3 7 2 16 -1 19 -3 4 -6 -2 -5 -13z"/>
<path d="M7051 8089 c-11 -34 -19 -64 -17 -66 2 -2 13 24 25 58 11 34 19 64
17 66 -2 2 -13 -24 -25 -58z"/>
<path d="M7826 8064 c-15 -42 -26 -78 -23 -80 2 -2 16 31 30 73 15 42 26 78
24 80 -3 2 -16 -31 -31 -73z"/>
<path d="M8036 8089 c-3 -18 -4 -34 -2 -36 2 -3 7 10 11 27 4 17 5 34 2 36 -2
3 -7 -10 -11 -27z"/>
<path d="M10236 7833 c-37 -153 -88 -350 -113 -438 -25 -88 -56 -200 -70 -250
-52 -189 -167 -558 -234 -750 -38 -110 -69 -205 -69 -211 0 -6 -25 -78 -56
-160 -31 -82 -73 -201 -94 -264 -66 -199 -235 -642 -357 -935 -41 -99 -84
-202 -95 -230 -11 -27 -42 -97 -68 -155 -108 -239 -134 -299 -161 -370 -98
-255 93 71 284 485 65 140 206 485 247 600 15 44 45 123 65 175 121 305 443
1289 516 1575 15 61 39 151 53 200 39 137 83 312 100 395 8 41 40 185 71 320
30 135 54 255 53 268 -2 13 -34 -102 -72 -255z"/>
<path d="M8651 8059 c-6 -18 -9 -34 -7 -36 2 -2 9 10 15 28 6 18 9 34 7 36 -2
2 -9 -10 -15 -28z"/>
<path d="M6662 8055 c0 -16 2 -22 5 -12 2 9 2 23 0 30 -3 6 -5 -1 -5 -18z"/>
<path d="M6641 7954 c-7 -36 -10 -68 -8 -71 3 -2 10 26 16 63 7 36 10 68 8 71
-3 2 -10 -26 -16 -63z"/>
<path d="M7541 7969 c-12 -29 -20 -54 -18 -56 2 -2 14 20 26 48 12 29 20 54
18 56 -2 2 -14 -20 -26 -48z"/>
<path d="M7011 7949 c-6 -18 -9 -34 -7 -36 2 -2 9 10 15 28 6 18 9 34 7 36 -2
2 -9 -10 -15 -28z"/>
<path d="M8016 7954 c-4 -14 -5 -28 -3 -31 3 -2 8 8 11 23 4 14 5 28 3 31 -3
2 -8 -8 -11 -23z"/>
<path d="M7781 7933 c-1 -6 -4 -20 -7 -30 -5 -17 -5 -17 6 0 6 10 9 23 6 30
-3 9 -5 9 -5 0z"/>
<path d="M9851 7924 c0 -11 3 -14 6 -6 3 7 2 16 -1 19 -3 4 -6 -2 -5 -13z"/>
<path d="M7506 7883 c-6 -14 -5 -15 5 -6 7 7 10 15 7 18 -3 3 -9 -2 -12 -12z"/>
<path d="M8001 7884 c0 -11 3 -14 6 -6 3 7 2 16 -1 19 -3 4 -6 -2 -5 -13z"/>
<path d="M9825 7825 c-9 -42 -15 -79 -12 -81 2 -2 11 30 21 72 9 42 15 79 12
81 -2 2 -11 -30 -21 -72z"/>
<path d="M10705 7883 c-4 -10 -17 -47 -30 -83 -13 -36 -26 -74 -31 -85 -4 -11
-4 -17 0 -13 10 8 76 191 72 196 -2 1 -7 -5 -11 -15z"/>
<path d="M8581 7849 c-6 -18 -9 -34 -7 -36 2 -2 9 10 15 28 6 18 9 34 7 36 -2
2 -9 -10 -15 -28z"/>
<path d="M6975 7858 c-25 -67 -44 -132 -41 -135 2 -2 15 30 29 71 14 42 24 76
21 76 -3 0 -7 -6 -9 -12z"/>
<path d="M6622 7840 c0 -14 2 -19 5 -12 2 6 2 18 0 25 -3 6 -5 1 -5 -13z"/>
<path d="M7096 7814 c-9 -26 -14 -49 -12 -51 2 -2 11 17 20 43 9 26 14 49 12
51 -2 2 -11 -17 -20 -43z"/>
<path d="M9195 7803 c-14 -31 -23 -58 -20 -61 2 -3 9 6 14 19 5 13 16 41 24
62 25 59 9 43 -18 -20z"/>
<path d="M7485 7839 c-4 -6 -5 -12 -2 -15 2 -3 7 2 10 11 7 17 1 20 -8 4z"/>
<path d="M7985 7820 c-4 -17 -5 -34 -2 -36 2 -3 7 10 11 27 3 18 4 34 2 36 -2
3 -7 -10 -11 -27z"/>
<path d="M11781 7796 c-7 -32 -11 -60 -8 -62 7 -7 30 93 25 107 -2 7 -10 -14
-17 -45z"/>
<path d="M6606 7769 c-4 -23 -5 -44 -2 -46 2 -2 7 14 11 37 4 23 5 43 2 46 -2
3 -7 -14 -11 -37z"/>
<path d="M6866 7795 c-3 -9 -6 -22 -5 -28 0 -7 5 -1 10 12 5 13 8 26 5 28 -2
2 -6 -3 -10 -12z"/>
<path d="M7466 7795 c-9 -26 -7 -32 5 -12 6 10 9 21 6 23 -2 3 -7 -2 -11 -11z"/>
<path d="M8556 7785 c-9 -26 -7 -32 5 -12 6 10 9 21 6 23 -2 3 -7 -2 -11 -11z"/>
<path d="M7971 7754 c0 -11 3 -14 6 -6 3 7 2 16 -1 19 -3 4 -6 -2 -5 -13z"/>
<path d="M6840 7708 c-6 -24 -15 -58 -20 -77 -15 -57 -2 -47 14 10 23 82 29
109 22 109 -3 0 -10 -19 -16 -42z"/>
<path d="M8540 7748 c0 -3 -12 -37 -26 -74 -14 -38 -21 -64 -16 -59 13 15 53
127 47 133 -3 3 -5 3 -5 0z"/>
<path d="M7956 7694 c-4 -20 -5 -38 -3 -40 3 -3 8 11 11 32 4 20 5 38 3 40 -3
3 -8 -11 -11 -32z"/>
<path d="M9785 7655 c-9 -42 -15 -79 -12 -81 2 -2 11 30 21 72 9 42 15 79 12
81 -2 2 -11 -30 -21 -72z"/>
<path d="M11752 7678 c-7 -26 -12 -57 -11 -70 0 -13 7 4 15 36 8 33 13 64 11
70 -2 6 -9 -11 -15 -36z"/>
<path d="M6907 7668 c-9 -23 -15 -43 -13 -45 2 -2 11 15 20 38 9 23 15 43 13
45 -2 2 -11 -15 -20 -38z"/>
<path d="M9157 7698 c-3 -7 -12 -30 -21 -50 -9 -21 -14 -38 -12 -38 7 0 47 92
42 97 -2 2 -6 -2 -9 -9z"/>
<path d="M10937 7658 c-9 -29 -15 -54 -13 -56 2 -2 12 20 21 48 9 28 15 53 13
55 -2 3 -12 -19 -21 -47z"/>
<path d="M12203 7657 c-11 -32 -19 -57 -16 -57 7 0 44 93 40 103 -2 6 -12 -15
-24 -46z"/>
<path d="M7426 7685 c-9 -26 -7 -32 5 -12 6 10 9 21 6 23 -2 3 -7 -2 -11 -11z"/>
<path d="M7696 7654 c-9 -26 -14 -49 -12 -51 2 -2 11 17 20 43 9 26 14 49 12
51 -2 2 -11 -17 -20 -43z"/>
<path d="M10611 7629 c-6 -18 -9 -34 -7 -36 2 -2 9 10 15 28 6 18 9 34 7 36
-2 2 -9 -10 -15 -28z"/>
<path d="M6592 7630 c0 -14 2 -19 5 -12 2 6 2 18 0 25 -3 6 -5 1 -5 -13z"/>
<path d="M7381 7580 c-17 -39 -31 -74 -30 -78 0 -4 16 26 35 67 19 41 33 76
31 78 -2 2 -18 -28 -36 -67z"/>
<path d="M7936 7609 c-3 -18 -4 -34 -2 -36 2 -3 7 10 11 27 4 17 5 34 2 36 -2
3 -7 -10 -11 -27z"/>
<path d="M9097 7565 c-24 -50 -20 -58 4 -12 11 22 19 41 17 43 -3 2 -12 -12
-21 -31z"/>
<path d="M6581 7574 c0 -11 3 -14 6 -6 3 7 2 16 -1 19 -3 4 -6 -2 -5 -13z"/>
<path d="M7666 7575 c-3 -9 -6 -22 -5 -28 0 -7 5 -1 10 12 5 13 8 26 5 28 -2
2 -6 -3 -10 -12z"/>
<path d="M6862 7523 c-6 -20 -10 -39 -8 -41 2 -2 9 13 16 33 7 20 10 38 8 41
-3 2 -10 -13 -16 -33z"/>
<path d="M7922 7540 c0 -14 2 -19 5 -12 2 6 2 18 0 25 -3 6 -5 1 -5 -13z"/>
<path d="M9756 7538 c-3 -13 -5 -32 -5 -43 1 -11 5 -2 10 19 10 42 6 62 -5 24z"/>
<path d="M10896 7545 c-3 -9 -6 -22 -5 -28 0 -7 5 -1 10 12 5 13 8 26 5 28 -2
2 -6 -3 -10 -12z"/>
<path d="M6572 7525 c0 -16 2 -22 5 -12 2 9 2 23 0 30 -3 6 -5 -1 -5 -18z"/>
<path d="M7646 7515 c-3 -9 -6 -22 -5 -28 0 -7 5 -1 10 12 5 13 8 26 5 28 -2
2 -6 -3 -10 -12z"/>
<path d="M12146 7505 c-9 -26 -7 -32 5 -12 6 10 9 21 6 23 -2 3 -7 -2 -11 -11z"/>
<path d="M9062 7485 c-17 -37 -14 -45 4 -12 9 16 14 31 11 33 -2 2 -9 -7 -15
-21z"/>
<path d="M6562 7470 c0 -14 2 -19 5 -12 2 6 2 18 0 25 -3 6 -5 1 -5 -13z"/>
<path d="M7336 7473 c-6 -14 -5 -15 5 -6 7 7 10 15 7 18 -3 3 -9 -2 -12 -12z"/>
<path d="M7901 7454 c0 -11 3 -14 6 -6 3 7 2 16 -1 19 -3 4 -6 -2 -5 -13z"/>
<path d="M10866 7435 c-3 -9 -6 -22 -5 -28 0 -7 5 -1 10 12 5 13 8 26 5 28 -2
2 -6 -3 -10 -12z"/>
<path d="M12091 7373 c-17 -43 -27 -73 -22 -68 12 13 62 137 57 142 -2 2 -17
-31 -35 -74z"/>
<path d="M6825 7428 c-26 -71 -44 -131 -37 -123 11 12 53 135 46 135 -3 0 -7
-6 -9 -12z"/>
<path d="M10545 7428 c-25 -67 -44 -132 -41 -135 2 -2 15 30 29 71 14 42 24
76 21 76 -3 0 -7 -6 -9 -12z"/>
<path d="M6545 7390 c-4 -23 -5 -43 -2 -46 2 -3 7 14 11 37 4 23 5 44 2 46 -2
2 -7 -14 -11 -37z"/>
<path d="M7891 7414 c0 -11 3 -14 6 -6 3 7 2 16 -1 19 -3 4 -6 -2 -5 -13z"/>
<path d="M6982 7373 c-7 -25 -11 -47 -9 -50 2 -2 10 17 17 42 7 25 11 48 8 50
-2 2 -10 -16 -16 -42z"/>
<path d="M8411 7389 c-6 -18 -9 -34 -7 -36 2 -2 9 10 15 28 6 18 9 34 7 36 -2
2 -9 -10 -15 -28z"/>
<path d="M9732 7390 c0 -14 2 -19 5 -12 2 6 2 18 0 25 -3 6 -5 1 -5 -13z"/>
<path d="M11891 7394 c0 -11 3 -14 6 -6 3 7 2 16 -1 19 -3 4 -6 -2 -5 -13z"/>
<path d="M10841 7359 c-6 -18 -9 -34 -7 -36 2 -2 9 10 15 28 6 18 9 34 7 36
-2 2 -9 -10 -15 -28z"/>
<path d="M9715 7328 c-4 -18 -20 -91 -36 -161 -17 -71 -28 -134 -27 -139 2 -6
21 65 42 157 21 91 36 169 33 171 -3 3 -8 -10 -12 -28z"/>
<path d="M8382 7315 c-17 -37 -14 -45 4 -12 9 16 14 31 11 33 -2 2 -9 -7 -15
-21z"/>
<path d="M6532 7310 c0 -14 2 -19 5 -12 2 6 2 18 0 25 -3 6 -5 1 -5 -13z"/>
<path d="M8983 7293 c-3 -10 -17 -42 -30 -72 -26 -59 -30 -80 -8 -40 21 38 56
129 50 129 -3 0 -8 -8 -12 -17z"/>
<path d="M5666 7274 c-4 -14 -5 -28 -3 -31 3 -2 8 8 11 23 4 14 5 28 3 31 -3
2 -8 -8 -11 -23z"/>
<path d="M7865 7270 c-4 -17 -5 -34 -2 -36 2 -3 7 10 11 27 3 18 4 34 2 36 -2
3 -7 -10 -11 -27z"/>
<path d="M6522 7255 c0 -16 2 -22 5 -12 2 9 2 23 0 30 -3 6 -5 -1 -5 -18z"/>
<path d="M6937 7223 c-9 -31 -15 -58 -13 -61 2 -2 12 22 21 53 9 32 14 59 12
61 -2 3 -11 -21 -20 -53z"/>
<path d="M10481 7258 c-16 -43 -22 -68 -18 -68 3 0 12 20 20 45 16 45 14 65
-2 23z"/>
<path d="M8347 7228 c-9 -23 -15 -43 -13 -45 2 -2 11 15 20 38 9 23 15 43 13
45 -2 2 -11 -15 -20 -38z"/>
<path d="M11851 7234 c-6 -21 -9 -40 -6 -42 2 -2 8 13 14 34 6 21 9 40 6 42
-2 2 -8 -13 -14 -34z"/>
<path d="M6756 7245 c-3 -9 -6 -22 -5 -28 0 -7 5 -1 10 12 5 13 8 26 5 28 -2
2 -6 -3 -10 -12z"/>
<path d="M12033 7245 c-3 -9 -3 -18 -1 -21 3 -3 8 4 11 16 6 23 -1 27 -10 5z"/>
<path d="M4106 6977 c-32 -142 -56 -260 -54 -262 4 -4 41 147 100 404 10 47
17 92 16 100 -2 9 -30 -100 -62 -242z"/>
<path d="M5651 7223 c-1 -6 -4 -20 -7 -30 -5 -17 -5 -17 6 0 6 10 9 23 6 30
-3 9 -5 9 -5 0z"/>
<path d="M6512 7200 c0 -14 2 -19 5 -12 2 6 2 18 0 25 -3 6 -5 1 -5 -13z"/>
<path d="M7851 7204 c0 -11 3 -14 6 -6 3 7 2 16 -1 19 -3 4 -6 -2 -5 -13z"/>
<path d="M7527 7134 c-15 -44 -27 -83 -27 -89 1 -5 14 26 30 70 16 44 28 84
27 89 -2 4 -15 -27 -30 -70z"/>
<path d="M7835 7150 c-4 -17 -5 -34 -2 -36 2 -3 7 10 11 27 3 18 4 34 2 36 -2
3 -7 -10 -11 -27z"/>
<path d="M11796 7049 c-21 -72 -36 -133 -34 -135 3 -2 21 55 42 127 21 72 36
132 34 134 -2 3 -21 -54 -42 -126z"/>
<path d="M6502 7150 c0 -14 2 -19 5 -12 2 6 2 18 0 25 -3 6 -5 1 -5 -13z"/>
<path d="M5256 7094 c-9 -37 -15 -68 -13 -71 3 -2 12 26 21 63 9 37 15 68 13
71 -3 2 -12 -26 -21 -63z"/>
<path d="M6725 7138 c-24 -68 -35 -102 -31 -105 2 -2 13 23 24 56 11 34 19 61
16 61 -3 0 -7 -6 -9 -12z"/>
<path d="M6906 7125 c-3 -9 -6 -22 -5 -28 0 -7 5 -1 10 12 5 13 8 26 5 28 -2
2 -6 -3 -10 -12z"/>
<path d="M7256 7114 c-4 -14 -5 -28 -3 -31 3 -2 8 8 11 23 4 14 5 28 3 31 -3
2 -8 -8 -11 -23z"/>
<path d="M5616 7104 c-4 -14 -5 -28 -3 -31 3 -2 8 8 11 23 4 14 5 28 3 31 -3
2 -8 -8 -11 -23z"/>
<path d="M8902 7105 c-7 -14 -12 -31 -12 -38 1 -7 7 3 16 22 17 39 13 54 -4
16z"/>
<path d="M10756 7115 c-9 -26 -7 -32 5 -12 6 10 9 21 6 23 -2 3 -7 -2 -11 -11z"/>
<path d="M6492 7095 c0 -16 2 -22 5 -12 2 9 2 23 0 30 -3 6 -5 -1 -5 -18z"/>
<path d="M7816 7069 c-3 -18 -4 -34 -2 -36 2 -3 7 10 11 27 4 17 5 34 2 36 -2
3 -7 -10 -11 -27z"/>
<path d="M6891 7064 c0 -11 3 -14 6 -6 3 7 2 16 -1 19 -3 4 -6 -2 -5 -13z"/>
<path d="M7241 7063 c-1 -6 -4 -20 -7 -30 -5 -17 -5 -17 6 0 6 10 9 23 6 30
-3 9 -5 9 -5 0z"/>
<path d="M6482 7040 c0 -14 2 -19 5 -12 2 6 2 18 0 25 -3 6 -5 1 -5 -13z"/>
<path d="M4921 7004 c0 -11 3 -14 6 -6 3 7 2 16 -1 19 -3 4 -6 -2 -5 -13z"/>
<path d="M6675 7008 c-24 -68 -35 -102 -31 -105 2 -2 13 23 24 56 11 34 19 61
16 61 -3 0 -7 -6 -9 -12z"/>
<path d="M7801 7004 c0 -11 3 -14 6 -6 3 7 2 16 -1 19 -3 4 -6 -2 -5 -13z"/>
<path d="M8847 6958 c-15 -34 -25 -63 -22 -66 2 -3 9 6 14 19 5 13 16 42 25
63 9 22 15 41 13 43 -2 1 -16 -25 -30 -59z"/>
<path d="M10391 6993 c-10 -26 -10 -27 4 -9 8 11 15 23 15 28 0 15 -7 8 -19
-19z"/>
<path d="M5222 6958 c-7 -28 -11 -53 -8 -55 2 -2 9 19 16 47 7 28 10 53 8 55
-3 3 -10 -18 -16 -47z"/>
<path d="M5481 6959 c-6 -28 -10 -54 -7 -56 2 -2 9 19 15 48 6 28 10 54 7 56
-2 2 -9 -19 -15 -48z"/>
<path d="M6472 6990 c0 -14 2 -19 5 -12 2 6 2 18 0 25 -3 6 -5 1 -5 -13z"/>
<path d="M9631 6954 c-7 -30 -11 -58 -8 -61 3 -2 11 21 17 52 6 31 10 59 7 61
-2 2 -9 -21 -16 -52z"/>
<path d="M10706 6954 c-9 -26 -14 -49 -12 -51 2 -2 11 17 20 43 9 26 14 49 12
51 -2 2 -11 -17 -20 -43z"/>
<path d="M12107 6938 c-15 -34 -25 -63 -23 -65 2 -2 15 24 30 58 15 34 25 63
23 65 -2 2 -16 -24 -30 -58z"/>
<path d="M5581 6959 c-6 -18 -11 -37 -10 -43 0 -6 7 7 15 28 8 22 12 41 10 43
-2 2 -9 -10 -15 -28z"/>
<path d="M6871 6974 c0 -11 3 -14 6 -6 3 7 2 16 -1 19 -3 4 -6 -2 -5 -13z"/>
<path d="M4911 6964 c0 -11 3 -14 6 -6 3 7 2 16 -1 19 -3 4 -6 -2 -5 -13z"/>
<path d="M7206 6954 c-4 -14 -5 -28 -3 -31 3 -2 8 8 11 23 4 14 5 28 3 31 -3
2 -8 -8 -11 -23z"/>
<path d="M7786 6944 c-4 -20 -5 -38 -3 -40 3 -3 8 11 11 32 4 20 5 38 3 40 -3
3 -8 -11 -11 -32z"/>
<path d="M7466 6955 c-3 -9 -6 -22 -5 -28 0 -7 5 -1 10 12 5 13 8 26 5 28 -2
2 -6 -3 -10 -12z"/>
<path d="M11176 6955 c-9 -26 -7 -32 5 -12 6 10 9 21 6 23 -2 3 -7 -2 -11 -11z"/>
<path d="M6461 6934 c0 -11 3 -14 6 -6 3 7 2 16 -1 19 -3 4 -6 -2 -5 -13z"/>
<path d="M6861 6943 c-1 -6 -4 -20 -7 -30 -5 -17 -5 -17 6 0 6 10 9 23 6 30
-3 9 -5 9 -5 0z"/>
<path d="M4896 6909 c-8 -42 0 -50 9 -9 4 17 5 34 2 36 -2 3 -7 -10 -11 -27z"/>
<path d="M11131 6839 c-17 -40 -30 -74 -28 -76 2 -2 18 29 36 68 17 40 30 74
28 76 -2 2 -18 -29 -36 -68z"/>
<path d="M5541 6824 c-12 -42 -20 -78 -18 -80 2 -2 14 30 26 72 12 42 20 78
18 80 -2 2 -14 -30 -26 -72z"/>
<path d="M5462 6865 c0 -16 2 -22 5 -12 2 9 2 23 0 30 -3 6 -5 -1 -5 -18z"/>
<path d="M6836 6864 c-4 -14 -5 -28 -3 -31 3 -2 8 8 11 23 4 14 5 28 3 31 -3
2 -8 -8 -11 -23z"/>
<path d="M10662 6833 c-37 -108 -35 -100 -22 -80 15 23 51 129 46 134 -2 2
-13 -22 -24 -54z"/>
<path d="M8801 6859 c-5 -13 -16 -42 -25 -63 -9 -22 -15 -41 -13 -43 2 -1 16
25 30 59 15 34 25 63 22 66 -2 3 -9 -6 -14 -19z"/>
<path d="M9612 6860 c0 -14 2 -19 5 -12 2 6 2 18 0 25 -3 6 -5 1 -5 -13z"/>
<path d="M11741 6854 c0 -11 3 -14 6 -6 3 7 2 16 -1 19 -3 4 -6 -2 -5 -13z"/>
<path d="M7436 6845 c-3 -9 -6 -22 -5 -28 0 -7 5 -1 10 12 5 13 8 26 5 28 -2
2 -6 -3 -10 -12z"/>
<path d="M12060 6835 c-6 -14 -15 -37 -21 -52 -5 -16 -6 -23 -1 -18 12 13 43
95 37 95 -3 0 -10 -11 -15 -25z"/>
<path d="M5185 6810 c-4 -17 -5 -34 -2 -36 2 -3 7 10 11 27 3 18 4 34 2 36 -2
3 -7 -10 -11 -27z"/>
<path d="M9602 6810 c0 -14 2 -19 5 -12 2 6 2 18 0 25 -3 6 -5 1 -5 -13z"/>
<path d="M6816 6794 c-4 -14 -5 -28 -3 -31 3 -2 8 8 11 23 4 14 5 28 3 31 -3
2 -8 -8 -11 -23z"/>
<path d="M7752 6800 c0 -14 2 -19 5 -12 2 6 2 18 0 25 -3 6 -5 1 -5 -13z"/>
<path d="M5450 6805 c0 -4 -18 -87 -40 -183 -23 -96 -38 -177 -35 -180 3 -3 5
-2 5 3 0 4 18 86 41 182 23 96 38 177 35 180 -3 4 -6 3 -6 -2z"/>
<path d="M4871 6754 c0 -11 3 -14 6 -6 3 7 2 16 -1 19 -3 4 -6 -2 -5 -13z"/>
<path d="M11721 6754 c0 -11 3 -14 6 -6 3 7 2 16 -1 19 -3 4 -6 -2 -5 -13z"/>
<path d="M9581 6694 c-6 -37 -10 -68 -8 -71 3 -2 10 26 17 62 7 36 10 68 8 70
-3 3 -10 -25 -17 -61z"/>
<path d="M7376 6664 c-14 -43 -24 -79 -22 -81 2 -2 16 31 30 73 14 43 24 79
22 81 -2 2 -16 -31 -30 -73z"/>
<path d="M4861 6714 c0 -11 3 -14 6 -6 3 7 2 16 -1 19 -3 4 -6 -2 -5 -13z"/>
<path d="M5500 6690 c-6 -23 -9 -44 -7 -46 2 -3 9 14 15 38 6 23 9 44 7 46 -2
2 -9 -15 -15 -38z"/>
<path d="M6569 6704 c-5 -15 -8 -29 -5 -31 2 -2 8 10 14 26 13 38 5 41 -9 5z"/>
<path d="M7001 6714 c0 -11 3 -14 6 -6 3 7 2 16 -1 19 -3 4 -6 -2 -5 -13z"/>
<path d="M11055 6673 c-14 -31 -23 -58 -20 -61 3 -3 5 -3 5 0 0 3 11 31 25 62
14 31 22 56 20 56 -3 0 -17 -25 -30 -57z"/>
<path d="M11997 6668 c-9 -23 -15 -43 -13 -45 2 -2 11 15 20 38 9 23 15 43 13
45 -2 2 -11 -15 -20 -38z"/>
<path d="M4041 6684 c0 -11 3 -14 6 -6 3 7 2 16 -1 19 -3 4 -6 -2 -5 -13z"/>
<path d="M11666 6569 c-21 -72 -36 -132 -34 -134 2 -3 21 54 42 126 21 72 36
133 34 135 -3 2 -21 -55 -42 -127z"/>
<path d="M4846 6659 c-8 -42 0 -50 9 -9 4 17 5 34 2 36 -2 3 -7 -10 -11 -27z"/>
<path d="M6776 6664 c-4 -14 -5 -28 -3 -31 3 -2 8 8 11 23 4 14 5 28 3 31 -3
2 -8 -8 -11 -23z"/>
<path d="M6982 6638 c-7 -28 -11 -53 -8 -55 2 -2 9 19 16 47 7 28 10 53 8 55
-3 3 -10 -18 -16 -47z"/>
<path d="M7126 6664 c-4 -14 -5 -28 -3 -31 3 -2 8 8 11 23 4 14 5 28 3 31 -3
2 -8 -8 -11 -23z"/>
<path d="M7726 6664 c-4 -14 -5 -28 -3 -31 3 -2 8 8 11 23 4 14 5 28 3 31 -3
2 -8 -8 -11 -23z"/>
<path d="M5588 6650 c-3 -14 -33 -127 -67 -251 -33 -124 -61 -235 -61 -246 0
-12 -15 -86 -34 -165 -57 -236 -106 -465 -105 -490 1 -30 118 463 140 587 5
33 39 171 75 307 36 136 64 256 62 265 -3 14 -5 12 -10 -7z"/>
<path d="M5476 6604 c-4 -14 -5 -28 -3 -31 3 -2 8 8 11 23 4 14 5 28 3 31 -3
2 -8 -8 -11 -23z"/>
<path d="M9550 6553 c-7 -32 -21 -94 -31 -138 -19 -81 -22 -102 -15 -94 8 8
68 280 63 285 -3 3 -11 -21 -17 -53z"/>
<path d="M10580 6599 c0 -5 -25 -74 -55 -151 -30 -78 -53 -143 -51 -145 4 -4
101 241 111 280 4 15 4 27 1 27 -3 0 -6 -5 -6 -11z"/>
<path d="M4816 6529 c-9 -39 -15 -73 -13 -76 3 -2 12 28 21 68 9 40 14 74 12
76 -2 3 -11 -28 -20 -68z"/>
<path d="M8686 6567 c-18 -44 -30 -83 -23 -77 8 8 47 110 42 110 -3 0 -11 -15
-19 -33z"/>
<path d="M11951 6569 c-5 -13 -16 -42 -25 -63 -9 -22 -15 -41 -13 -43 2 -1 16
25 30 59 15 34 25 63 22 66 -2 3 -9 -6 -14 -19z"/>
<path d="M9210 6553 c-26 -57 -40 -93 -36 -93 6 0 57 112 53 117 -2 2 -10 -9
-17 -24z"/>
<path d="M6952 6518 c-7 -28 -11 -53 -8 -55 2 -2 9 19 16 47 7 28 10 53 8 55
-3 3 -10 -18 -16 -47z"/>
<path d="M11008 6555 c-3 -11 -13 -37 -22 -57 -9 -21 -14 -38 -12 -38 9 0 47
93 43 104 -2 6 -6 2 -9 -9z"/>
<path d="M5076 6499 c-8 -42 0 -50 9 -9 4 17 5 34 2 36 -2 3 -7 -10 -11 -27z"/>
<path d="M7321 6494 c0 -11 3 -14 6 -6 3 7 2 16 -1 19 -3 4 -6 -2 -5 -13z"/>
<path d="M8646 6465 c-9 -26 -7 -32 5 -12 6 10 9 21 6 23 -2 3 -7 -2 -11 -11z"/>
<path d="M5436 6444 c-4 -14 -5 -28 -3 -31 3 -2 8 8 11 23 4 14 5 28 3 31 -3
2 -8 -8 -11 -23z"/>
<path d="M10951 6428 c-5 -13 -19 -45 -30 -71 -24 -55 -27 -75 -6 -36 21 38
56 129 50 129 -3 0 -9 -10 -14 -22z"/>
<path d="M5055 6410 c-4 -17 -5 -34 -2 -36 2 -3 7 10 11 27 8 42 0 50 -9 9z"/>
<path d="M6925 6410 c-4 -17 -5 -34 -2 -36 2 -3 7 10 11 27 3 18 4 34 2 36 -2
3 -7 -10 -11 -27z"/>
<path d="M4781 6384 c-7 -25 -10 -48 -8 -51 3 -2 10 17 16 43 7 25 10 48 8 51
-3 2 -10 -17 -16 -43z"/>
<path d="M5351 6374 c-7 -30 -11 -57 -8 -60 2 -2 9 21 16 52 7 30 11 57 8 60
-2 2 -9 -21 -16 -52z"/>
<path d="M6707 6411 c-4 -17 -3 -21 5 -13 5 5 8 16 6 23 -3 8 -7 3 -11 -10z"/>
<path d="M7287 6378 c-9 -29 -15 -54 -13 -56 2 -2 12 20 21 48 9 28 15 53 13
55 -2 3 -12 -19 -21 -47z"/>
<path d="M9146 6398 c-8 -18 -37 -82 -65 -142 -29 -60 -49 -111 -47 -114 3 -2
10 6 15 19 5 13 28 65 51 114 58 124 71 155 65 155 -2 0 -11 -15 -19 -32z"/>
<path d="M11611 6379 c-7 -22 -11 -43 -8 -45 2 -2 9 14 16 37 7 22 11 43 8 45
-2 2 -9 -14 -16 -37z"/>
<path d="M6452 6390 c0 -14 2 -19 5 -12 2 6 2 18 0 25 -3 6 -5 1 -5 -13z"/>
<path d="M8612 6385 c-17 -37 -14 -45 4 -12 9 16 14 31 11 33 -2 2 -9 -7 -15
-21z"/>
<path d="M5412 6358 c-6 -23 -9 -44 -7 -46 2 -2 9 15 15 38 6 23 9 44 7 46 -2
3 -9 -14 -15 -38z"/>
<path d="M5041 6344 c0 -11 3 -14 6 -6 3 7 2 16 -1 19 -3 4 -6 -2 -5 -13z"/>
<path d="M6442 6335 c0 -16 2 -22 5 -12 2 9 2 23 0 30 -3 6 -5 -1 -5 -18z"/>
<path d="M6911 6344 c0 -11 3 -14 6 -6 3 7 2 16 -1 19 -3 4 -6 -2 -5 -13z"/>
<path d="M5031 6304 c0 -11 3 -14 6 -6 3 7 2 16 -1 19 -3 4 -6 -2 -5 -13z"/>
<path d="M6901 6304 c0 -11 3 -14 6 -6 3 7 2 16 -1 19 -3 4 -6 -2 -5 -13z"/>
<path d="M11841 6293 c-26 -56 -52 -128 -43 -118 12 14 64 137 59 141 -2 2 -9
-8 -16 -23z"/>
<path d="M4761 6294 c0 -11 3 -14 6 -6 3 7 2 16 -1 19 -3 4 -6 -2 -5 -13z"/>
<path d="M5331 6284 c0 -11 3 -14 6 -6 3 7 2 16 -1 19 -3 4 -6 -2 -5 -13z"/>
<path d="M5386 6274 c-4 -14 -5 -28 -3 -31 3 -2 8 8 11 23 4 14 5 28 3 31 -3
2 -8 -8 -11 -23z"/>
<path d="M6151 6239 c-7 -33 -10 -63 -8 -65 2 -3 10 23 16 57 7 33 10 63 8 65
-2 3 -10 -23 -16 -57z"/>
<path d="M6432 6275 c0 -16 2 -22 5 -12 2 9 2 23 0 30 -3 6 -5 -1 -5 -18z"/>
<path d="M9485 6270 c-4 -17 -5 -34 -2 -36 2 -3 7 10 11 27 3 18 4 34 2 36 -2
3 -7 -10 -11 -27z"/>
<path d="M8566 6257 c-7 -19 -17 -45 -20 -58 -11 -37 11 1 29 51 17 48 11 53
-9 7z"/>
<path d="M10461 6274 c0 -11 3 -14 6 -6 3 7 2 16 -1 19 -3 4 -6 -2 -5 -13z"/>
<path d="M4162 6255 c0 -16 2 -22 5 -12 2 9 2 23 0 30 -3 6 -5 -1 -5 -18z"/>
<path d="M6891 6264 c0 -11 3 -14 6 -6 3 7 2 16 -1 19 -3 4 -6 -2 -5 -13z"/>
<path d="M4751 6254 c0 -11 3 -14 6 -6 3 7 2 16 -1 19 -3 4 -6 -2 -5 -13z"/>
<path d="M5322 6240 c0 -14 2 -19 5 -12 2 6 2 18 0 25 -3 6 -5 1 -5 -13z"/>
<path d="M11576 6229 c-8 -42 0 -50 9 -9 4 17 5 34 2 36 -2 3 -7 -10 -11 -27z"/>
<path d="M5021 6224 c0 -11 3 -14 6 -6 3 7 2 16 -1 19 -3 4 -6 -2 -5 -13z"/>
<path d="M6422 6220 c0 -14 2 -19 5 -12 2 6 2 18 0 25 -3 6 -5 1 -5 -13z"/>
<path d="M5366 6204 c-4 -14 -5 -28 -3 -31 3 -2 8 8 11 23 4 14 5 28 3 31 -3
2 -8 -8 -11 -23z"/>
<path d="M4151 6204 c0 -11 3 -14 6 -6 3 7 2 16 -1 19 -3 4 -6 -2 -5 -13z"/>
<path d="M9466 6189 c-3 -18 -4 -34 -2 -36 2 -3 7 10 11 27 4 17 5 34 2 36 -2
3 -7 -10 -11 -27z"/>
<path d="M10436 6205 c-9 -26 -7 -32 5 -12 6 10 9 21 6 23 -2 3 -7 -2 -11 -11z"/>
<path d="M10856 6195 c-9 -26 -7 -32 5 -12 6 10 9 21 6 23 -2 3 -7 -2 -11 -11z"/>
<path d="M5011 6184 c0 -11 3 -14 6 -6 3 7 2 16 -1 19 -3 4 -6 -2 -5 -13z"/>
<path d="M6376 5964 c-21 -118 -36 -217 -34 -219 2 -3 21 92 42 211 21 118 36
217 34 219 -2 3 -21 -92 -42 -211z"/>
<path d="M11550 6139 c-6 -24 -16 -59 -22 -77 -5 -18 -8 -35 -5 -38 2 -3 14
30 26 73 11 42 19 79 16 81 -2 2 -9 -16 -15 -39z"/>
<path d="M4141 6154 c0 -11 3 -14 6 -6 3 7 2 16 -1 19 -3 4 -6 -2 -5 -13z"/>
<path d="M8521 6148 c-5 -13 -19 -47 -30 -77 -12 -29 -20 -55 -18 -58 3 -2 9
9 15 24 5 15 19 52 31 81 11 28 18 52 16 52 -3 0 -9 -10 -14 -22z"/>
<path d="M10414 6154 c-4 -10 -18 -46 -30 -78 -13 -33 -22 -61 -20 -63 2 -2
17 31 35 73 17 43 29 79 26 82 -2 3 -8 -4 -11 -14z"/>
<path d="M6871 6144 c0 -11 3 -14 6 -6 3 7 2 16 -1 19 -3 4 -6 -2 -5 -13z"/>
<path d="M10833 6143 c-3 -10 -17 -42 -30 -72 -26 -59 -30 -80 -8 -40 21 38
56 129 50 129 -3 0 -8 -8 -12 -17z"/>
<path d="M11777 6148 c-3 -7 -12 -30 -21 -50 -9 -21 -14 -38 -11 -38 8 0 47
92 41 97 -2 2 -6 -2 -9 -9z"/>
<path d="M4990 6100 c-7 -28 -10 -53 -8 -55 3 -3 10 18 16 47 7 28 11 53 8 55
-2 2 -9 -19 -16 -47z"/>
<path d="M6131 6134 c0 -11 3 -14 6 -6 3 7 2 16 -1 19 -3 4 -6 -2 -5 -13z"/>
<path d="M4721 6094 c-7 -25 -10 -48 -8 -51 3 -2 10 17 16 43 7 25 10 48 8 51
-3 2 -10 -17 -16 -43z"/>
<path d="M4126 6089 c-4 -23 -5 -44 -2 -46 2 -2 7 14 11 37 4 23 5 43 2 46 -2
3 -7 -14 -11 -37z"/>
<path d="M5296 6104 c-4 -14 -5 -28 -3 -31 3 -2 8 8 11 23 4 14 5 28 3 31 -3
2 -8 -8 -11 -23z"/>
<path d="M5336 6104 c-4 -14 -5 -28 -3 -31 3 -2 8 8 11 23 4 14 5 28 3 31 -3
2 -8 -8 -11 -23z"/>
<path d="M7191 6099 c-6 -18 -11 -37 -10 -43 0 -6 7 7 15 28 8 22 12 41 10 43
-2 2 -9 -10 -15 -28z"/>
<path d="M6856 6089 c-3 -18 -4 -34 -2 -36 2 -3 7 10 11 27 4 17 5 34 2 36 -2
3 -7 -10 -11 -27z"/>
<path d="M6122 6090 c0 -14 2 -19 5 -12 2 6 2 18 0 25 -3 6 -5 1 -5 -13z"/>
<path d="M9006 6085 c-9 -26 -7 -32 5 -12 6 10 9 21 6 23 -2 3 -7 -2 -11 -11z"/>
<path d="M11895 6080 c-4 -12 -5 -24 -2 -27 3 -2 8 5 12 17 4 12 5 24 2 27 -3
2 -8 -5 -12 -17z"/>
<path d="M5276 6024 c-4 -20 -5 -38 -3 -40 3 -3 8 11 11 32 4 20 5 38 3 40 -3
3 -8 -11 -11 -32z"/>
<path d="M6111 6044 c0 -11 3 -14 6 -6 3 7 2 16 -1 19 -3 4 -6 -2 -5 -13z"/>
<path d="M8141 6044 c0 -11 3 -14 6 -6 3 7 2 16 -1 19 -3 4 -6 -2 -5 -13z"/>
<path d="M6835 6010 c-4 -17 -5 -34 -2 -36 2 -3 7 10 11 27 3 18 4 34 2 36 -2
3 -7 -10 -11 -27z"/>
<path d="M11731 6024 c0 -11 3 -14 6 -6 3 7 2 16 -1 19 -3 4 -6 -2 -5 -13z"/>
<path d="M4956 5964 c-9 -37 -15 -68 -13 -71 3 -2 12 26 21 63 9 37 15 68 13
71 -3 2 -12 -26 -21 -63z"/>
<path d="M8945 5953 c-19 -42 -33 -78 -31 -81 3 -2 17 22 31 54 36 80 45 104
40 104 -2 0 -20 -34 -40 -77z"/>
<path d="M4105 5980 c-4 -23 -5 -43 -2 -46 2 -3 7 14 11 37 4 23 5 44 2 46 -2
2 -7 -14 -11 -37z"/>
<path d="M4695 5990 c-4 -17 -5 -34 -2 -36 2 -3 7 10 11 27 8 42 0 50 -9 9z"/>
<path d="M6102 6000 c0 -14 2 -19 5 -12 2 6 2 18 0 25 -3 6 -5 1 -5 -13z"/>
<path d="M8121 5974 c-18 -71 -24 -99 -18 -94 7 7 37 123 32 128 -2 2 -8 -13
-14 -34z"/>
<path d="M10336 5965 c-23 -54 -18 -68 5 -16 11 24 17 46 15 49 -3 2 -12 -13
-20 -33z"/>
<path d="M11711 5979 c-5 -13 -30 -71 -55 -128 -26 -57 -45 -106 -42 -109 3
-2 9 4 12 14 4 10 29 68 56 128 27 60 46 111 44 114 -3 3 -10 -6 -15 -19z"/>
<path d="M11850 5954 c-21 -49 -26 -70 -9 -41 17 29 40 87 34 87 -3 0 -15 -21
-25 -46z"/>
<path d="M7151 5959 c-6 -18 -9 -34 -7 -36 2 -2 9 10 15 28 6 18 9 34 7 36 -2
2 -9 -10 -15 -28z"/>
<path d="M10752 5955 c-17 -37 -14 -45 4 -12 9 16 14 31 11 33 -2 2 -9 -7 -15
-21z"/>
<path d="M5252 5918 c-7 -28 -11 -53 -8 -55 2 -2 9 19 16 47 7 28 10 53 8 55
-3 3 -10 -18 -16 -47z"/>
<path d="M5301 5954 c0 -11 3 -14 6 -6 3 7 2 16 -1 19 -3 4 -6 -2 -5 -13z"/>
<path d="M6092 5950 c0 -14 2 -19 5 -12 2 6 2 18 0 25 -3 6 -5 1 -5 -13z"/>
<path d="M6812 5908 c-7 -28 -11 -53 -8 -55 2 -2 9 19 16 47 7 28 10 53 8 55
-3 3 -10 -18 -16 -47z"/>
<path d="M4682 5920 c0 -14 2 -19 5 -12 2 6 2 18 0 25 -3 6 -5 1 -5 -13z"/>
<path d="M6082 5900 c0 -14 2 -19 5 -12 2 6 2 18 0 25 -3 6 -5 1 -5 -13z"/>
<path d="M5276 5874 c-4 -14 -5 -28 -3 -31 3 -2 8 8 11 23 4 14 5 28 3 31 -3
2 -8 -8 -11 -23z"/>
<path d="M8416 5875 c-9 -26 -7 -32 5 -12 6 10 9 21 6 23 -2 3 -7 -2 -11 -11z"/>
<path d="M11811 5868 c-5 -13 -19 -45 -30 -72 -12 -27 -19 -51 -17 -54 3 -3
10 6 15 19 5 13 18 48 30 77 11 28 18 52 16 52 -3 0 -9 -10 -14 -22z"/>
<path d="M4921 5824 c-7 -25 -10 -48 -8 -51 3 -2 10 17 16 43 7 25 10 48 8 51
-3 2 -10 -17 -16 -43z"/>
<path d="M6072 5850 c0 -14 2 -19 5 -12 2 6 2 18 0 25 -3 6 -5 1 -5 -13z"/>
<path d="M8086 5844 c-4 -14 -5 -28 -3 -31 3 -2 8 8 11 23 4 14 5 28 3 31 -3
2 -8 -8 -11 -23z"/>
<path d="M10291 5839 c-5 -13 -30 -73 -55 -133 -26 -60 -45 -110 -43 -113 2
-2 30 56 61 128 31 73 54 134 51 137 -2 3 -9 -6 -14 -19z"/>
<path d="M10716 5852 c-12 -19 -47 -116 -38 -107 10 12 53 115 47 115 -2 0 -6
-4 -9 -8z"/>
<path d="M5231 5834 c0 -11 3 -14 6 -6 3 7 2 16 -1 19 -3 4 -6 -2 -5 -13z"/>
<path d="M6791 5824 c0 -11 3 -14 6 -6 3 7 2 16 -1 19 -3 4 -6 -2 -5 -13z"/>
<path d="M8400 5837 c0 -3 -9 -30 -21 -59 -11 -29 -16 -48 -11 -43 14 15 44
97 37 103 -3 3 -5 2 -5 -1z"/>
<path d="M5256 5804 c-4 -14 -5 -28 -3 -31 3 -2 8 8 11 23 4 14 5 28 3 31 -3
2 -8 -8 -11 -23z"/>
<path d="M6062 5800 c0 -14 2 -19 5 -12 2 6 2 18 0 25 -3 6 -5 1 -5 -13z"/>
<path d="M6776 5769 c-3 -18 -4 -34 -2 -36 2 -3 7 10 11 27 4 17 5 34 2 36 -2
3 -7 -10 -11 -27z"/>
<path d="M8071 5784 c0 -11 3 -14 6 -6 3 7 2 16 -1 19 -3 4 -6 -2 -5 -13z"/>
<path d="M8866 5775 c-9 -26 -7 -32 5 -12 6 10 9 21 6 23 -2 3 -7 -2 -11 -11z"/>
<path d="M6051 5754 c0 -11 3 -14 6 -6 3 7 2 16 -1 19 -3 4 -6 -2 -5 -13z"/>
<path d="M8809 5659 c-22 -45 -38 -83 -35 -86 5 -6 23 28 60 110 37 84 22 69
-25 -24z"/>
<path d="M5231 5714 c0 -11 3 -14 6 -6 3 7 2 16 -1 19 -3 4 -6 -2 -5 -13z"/>
<path d="M6332 5710 c0 -14 2 -19 5 -12 2 6 2 18 0 25 -3 6 -5 1 -5 -13z"/>
<path d="M8051 5714 c0 -11 3 -14 6 -6 3 7 2 16 -1 19 -3 4 -6 -2 -5 -13z"/>
<path d="M10636 5669 c-15 -34 -25 -63 -23 -66 2 -2 16 24 31 58 15 34 25 63
23 66 -2 2 -16 -24 -31 -58z"/>
<path d="M6041 5704 c0 -11 3 -14 6 -6 3 7 2 16 -1 19 -3 4 -6 -2 -5 -13z"/>
<path d="M6761 5704 c0 -11 3 -14 6 -6 3 7 2 16 -1 19 -3 4 -6 -2 -5 -13z"/>
<path d="M8346 5705 c-9 -26 -7 -32 5 -12 6 10 9 21 6 23 -2 3 -7 -2 -11 -11z"/>
<path d="M6537 5683 c-3 -5 -7 -28 -11 -53 -7 -52 -1 -44 13 18 8 40 8 51 -2
35z"/>
<path d="M8036 5664 c-4 -14 -5 -28 -3 -31 3 -2 8 8 11 23 4 14 5 28 3 31 -3
2 -8 -8 -11 -23z"/>
<path d="M6322 5660 c0 -14 2 -19 5 -12 2 6 2 18 0 25 -3 6 -5 1 -5 -13z"/>
<path d="M6751 5664 c0 -11 3 -14 6 -6 3 7 2 16 -1 19 -3 4 -6 -2 -5 -13z"/>
<path d="M8326 5655 c-9 -26 -7 -32 5 -12 6 10 9 21 6 23 -2 3 -7 -2 -11 -11z"/>
<path d="M11576 5655 c-9 -26 -7 -32 5 -12 6 10 9 21 6 23 -2 3 -7 -2 -11 -11z"/>
<path d="M11541 5579 c-5 -13 -19 -46 -30 -73 -12 -27 -20 -50 -18 -53 2 -2
18 29 36 68 17 40 29 74 26 77 -2 3 -9 -6 -14 -19z"/>
<path d="M11691 5568 c-5 -13 -16 -40 -25 -62 -17 -42 -21 -60 -6 -36 15 26
50 120 45 120 -3 0 -9 -10 -14 -22z"/>
<path d="M6501 5519 c-7 -33 -10 -63 -8 -65 2 -3 10 23 16 57 7 33 10 63 8 65
-2 3 -10 -23 -16 -57z"/>
<path d="M6021 5554 c0 -11 3 -14 6 -6 3 7 2 16 -1 19 -3 4 -6 -2 -5 -13z"/>
<path d="M6726 5539 c-3 -18 -4 -34 -2 -36 2 -3 7 10 11 27 4 17 5 34 2 36 -2
3 -7 -10 -11 -27z"/>
<path d="M6991 5426 c-12 -71 -20 -131 -17 -134 4 -3 6 -1 6 5 0 5 9 60 20
123 12 62 19 118 17 123 -2 6 -13 -47 -26 -117z"/>
<path d="M8006 5524 c-4 -14 -5 -28 -3 -31 3 -2 8 8 11 23 4 14 5 28 3 31 -3
2 -8 -8 -11 -23z"/>
<path d="M11291 5513 c-10 -26 -10 -27 4 -9 8 11 15 23 15 28 0 15 -7 8 -19
-19z"/>
<path d="M6011 5514 c0 -11 3 -14 6 -6 3 7 2 16 -1 19 -3 4 -6 -2 -5 -13z"/>
<path d="M10576 5515 c-9 -26 -7 -32 5 -12 6 10 9 21 6 23 -2 3 -7 -2 -11 -11z"/>
<path d="M6302 5500 c0 -14 2 -19 5 -12 2 6 2 18 0 25 -3 6 -5 1 -5 -13z"/>
<path d="M6711 5474 c0 -11 3 -14 6 -6 3 7 2 16 -1 19 -3 4 -6 -2 -5 -13z"/>
<path d="M6001 5464 c0 -11 3 -14 6 -6 3 7 2 16 -1 19 -3 4 -6 -2 -5 -13z"/>
<path d="M7955 5348 c-47 -166 -49 -174 -42 -168 8 7 89 291 84 296 -2 2 -21
-55 -42 -128z"/>
<path d="M10107 5383 c-20 -48 -35 -88 -33 -90 2 -2 20 35 40 83 20 48 35 89
33 91 -2 2 -20 -36 -40 -84z"/>
<path d="M5311 5444 c0 -11 3 -14 6 -6 3 7 2 16 -1 19 -3 4 -6 -2 -5 -13z"/>
<path d="M6291 5444 c0 -11 3 -14 6 -6 3 7 2 16 -1 19 -3 4 -6 -2 -5 -13z"/>
<path d="M10537 5423 c-8 -21 -23 -56 -32 -78 -9 -22 -12 -35 -7 -30 13 12 63
137 58 142 -2 2 -10 -13 -19 -34z"/>
<path d="M11243 5423 c-8 -21 -24 -55 -34 -75 -11 -21 -17 -38 -14 -38 5 0 50
87 65 126 15 39 0 28 -17 -13z"/>
<path d="M6701 5434 c0 -11 3 -14 6 -6 3 7 2 16 -1 19 -3 4 -6 -2 -5 -13z"/>
<path d="M8622 5273 c-107 -218 -123 -253 -116 -253 3 0 46 84 95 187 50 103
97 200 105 215 8 16 12 28 9 28 -3 0 -45 -80 -93 -177z"/>
<path d="M6471 5384 c-6 -32 -9 -59 -7 -61 2 -3 10 21 16 52 6 31 10 59 7 61
-2 2 -9 -21 -16 -52z"/>
<path d="M11616 5390 c-9 -22 -16 -46 -16 -53 1 -6 10 10 20 37 11 28 18 51
16 53 -2 2 -11 -14 -20 -37z"/>
<path d="M6276 5379 c-4 -23 -5 -44 -2 -46 2 -2 7 14 11 37 4 23 5 43 2 46 -2
3 -7 -14 -11 -37z"/>
<path d="M11466 5405 c-9 -26 -7 -32 5 -12 6 10 9 21 6 23 -2 3 -7 -2 -11 -11z"/>
<path d="M5287 5320 c-10 -52 -21 -106 -24 -120 -3 -14 -3 -23 0 -20 9 9 49
199 45 218 -2 9 -12 -26 -21 -78z"/>
<path d="M6691 5394 c0 -11 3 -14 6 -6 3 7 2 16 -1 19 -3 4 -6 -2 -5 -13z"/>
<path d="M6681 5354 c0 -11 3 -14 6 -6 3 7 2 16 -1 19 -3 4 -6 -2 -5 -13z"/>
<path d="M11441 5334 c0 -11 3 -14 6 -6 3 7 2 16 -1 19 -3 4 -6 -2 -5 -13z"/>
<path d="M6651 5244 c-12 -48 -20 -88 -18 -91 3 -2 14 35 26 83 12 48 20 88
18 91 -3 2 -14 -35 -26 -83z"/>
<path d="M6255 5270 c-4 -23 -5 -43 -2 -46 2 -3 7 14 11 37 4 23 5 44 2 46 -2
2 -7 -14 -11 -37z"/>
<path d="M9081 5245 c-22 -36 -37 -65 -32 -65 4 0 13 10 19 23 6 12 23 41 37
65 14 23 24 42 22 42 -3 0 -23 -29 -46 -65z"/>
<path d="M11421 5289 c-5 -13 -19 -46 -30 -73 -12 -27 -20 -50 -18 -53 2 -2
18 29 36 68 17 40 29 74 26 77 -2 3 -9 -6 -14 -19z"/>
<path d="M11176 5284 c-4 -9 -4 -19 -1 -22 2 -3 7 3 11 12 4 9 4 19 1 22 -2 3
-7 -3 -11 -12z"/>
<path d="M11561 5237 c-12 -34 -18 -57 -13 -52 13 14 46 104 40 110 -2 2 -14
-23 -27 -58z"/>
<path d="M6941 5149 c-13 -71 -21 -132 -19 -135 3 -2 15 55 27 127 13 71 21
132 19 135 -3 2 -15 -55 -27 -127z"/>
<path d="M10045 5245 c-8 -21 -13 -40 -11 -43 3 -2 12 13 21 33 8 21 13 40 11
43 -3 2 -12 -13 -21 -33z"/>
<path d="M10717 5233 l-17 -38 20 24 c11 13 20 29 20 37 0 22 -5 17 -23 -23z"/>
<path d="M6242 5190 c0 -14 2 -19 5 -12 2 6 2 18 0 25 -3 6 -5 1 -5 -13z"/>
<path d="M6441 5194 c0 -11 3 -14 6 -6 3 7 2 16 -1 19 -3 4 -6 -2 -5 -13z"/>
<path d="M10441 5184 c0 -11 3 -14 6 -6 3 7 2 16 -1 19 -3 4 -6 -2 -5 -13z"/>
<path d="M6421 5109 c-7 -33 -10 -63 -8 -65 2 -3 10 23 16 57 7 33 10 63 8 65
-2 3 -10 -23 -16 -57z"/>
<path d="M10641 5093 c-23 -43 -40 -82 -38 -86 1 -4 21 31 45 78 23 47 40 85
38 85 -3 0 -23 -35 -45 -77z"/>
<path d="M11506 5104 c-14 -37 -24 -69 -22 -71 2 -2 15 26 30 63 14 37 24 69
22 71 -2 2 -15 -26 -30 -63z"/>
<path d="M10421 5138 c-5 -13 -16 -40 -25 -62 -17 -42 -21 -60 -6 -36 15 26
50 120 45 120 -3 0 -9 -10 -14 -22z"/>
<path d="M11104 5124 c-9 -21 -23 -51 -30 -66 -8 -16 -12 -28 -9 -28 8 0 67
122 61 128 -3 3 -13 -12 -22 -34z"/>
<path d="M9957 5013 c-32 -75 -56 -138 -54 -140 2 -1 30 58 61 133 32 75 56
137 54 139 -2 2 -30 -57 -61 -132z"/>
<path d="M11340 5104 c-18 -42 -26 -73 -16 -63 8 8 46 109 40 109 -2 0 -14
-21 -24 -46z"/>
<path d="M7891 5124 c0 -11 3 -14 6 -6 3 7 2 16 -1 19 -3 4 -6 -2 -5 -13z"/>
<path d="M8985 5083 c-16 -26 -38 -61 -50 -78 -25 -33 -48 -75 -42 -75 8 0
129 192 124 196 -2 3 -17 -17 -32 -43z"/>
<path d="M7846 4949 c-15 -50 -25 -93 -23 -95 2 -2 16 37 31 87 15 50 26 93
23 95 -2 2 -16 -37 -31 -87z"/>
<path d="M6396 4994 c-4 -20 -5 -38 -3 -40 3 -3 8 11 11 32 4 20 5 38 3 40 -3
3 -8 -11 -11 -32z"/>
<path d="M6912 4980 c0 -14 2 -19 5 -12 2 6 2 18 0 25 -3 6 -5 1 -5 -13z"/>
<path d="M11036 4985 c-9 -26 -7 -32 5 -12 6 10 9 21 6 23 -2 3 -7 -2 -11 -11z"/>
<path d="M11281 4949 c-12 -29 -20 -54 -17 -56 2 -2 13 19 25 48 12 28 20 53
18 55 -2 3 -14 -19 -26 -47z"/>
<path d="M10562 4935 c-12 -25 -20 -45 -17 -45 7 0 47 81 43 86 -3 2 -14 -17
-26 -41z"/>
<path d="M8465 4959 c-4 -6 -5 -12 -2 -15 2 -3 7 2 10 11 7 17 1 20 -8 4z"/>
<path d="M8414 4845 c-14 -32 -32 -71 -40 -87 -8 -15 -12 -28 -9 -28 8 0 87
162 81 168 -3 3 -17 -21 -32 -53z"/>
<path d="M11424 4884 c-4 -10 -29 -75 -56 -143 -27 -68 -47 -125 -45 -127 2
-2 29 60 60 138 31 78 55 144 52 146 -2 3 -8 -4 -11 -14z"/>
<path d="M11531 4863 c-5 -16 -19 -47 -30 -70 -11 -24 -18 -43 -15 -43 2 0 20
32 38 70 19 39 31 70 26 70 -4 0 -13 -12 -19 -27z"/>
<path d="M8824 4818 c-45 -76 -51 -90 -27 -61 22 28 76 123 69 123 -2 0 -21
-28 -42 -62z"/>
<path d="M10495 4810 c-19 -38 -33 -70 -30 -70 2 0 21 32 40 70 19 39 33 70
30 70 -2 0 -21 -31 -40 -70z"/>
<path d="M10980 4856 c-5 -14 -21 -48 -35 -75 -14 -28 -23 -51 -20 -51 5 0 51
87 65 126 5 13 7 24 5 24 -3 0 -10 -11 -15 -24z"/>
<path d="M11234 4845 c-36 -87 -55 -139 -46 -130 5 6 16 28 25 50 8 22 23 57
31 78 9 20 14 37 11 37 -3 0 -13 -16 -21 -35z"/>
<path d="M7806 4814 c-4 -14 -5 -28 -3 -31 3 -2 8 8 11 23 4 14 5 28 3 31 -3
2 -8 -8 -11 -23z"/>
<path d="M7791 4763 c-1 -6 -4 -20 -7 -30 -5 -17 -5 -17 6 0 6 10 9 23 6 30
-3 9 -5 9 -5 0z"/>
<path d="M9849 4744 c-45 -118 -59 -158 -51 -149 13 15 73 168 67 173 -2 3 -9
-8 -16 -24z"/>
<path d="M7771 4694 c0 -11 3 -14 6 -6 3 7 2 16 -1 19 -3 4 -6 -2 -5 -13z"/>
<path d="M8329 4674 c-5 -15 -8 -29 -5 -31 2 -2 8 10 14 26 13 38 5 41 -9 5z"/>
<path d="M10422 4655 c-12 -25 -20 -45 -17 -45 7 0 47 81 43 86 -3 2 -14 -17
-26 -41z"/>
<path d="M10896 4685 c-9 -26 -7 -32 5 -12 6 10 9 21 6 23 -2 3 -7 -2 -11 -11z"/>
<path d="M10355 4530 c-19 -38 -33 -70 -30 -70 2 0 21 32 40 70 19 39 33 70
30 70 -2 0 -21 -31 -40 -70z"/>
<path d="M10843 4563 c-8 -21 -24 -55 -34 -75 -11 -21 -17 -38 -14 -38 5 0 36
58 58 113 9 20 14 37 11 37 -3 0 -12 -17 -21 -37z"/>
<path d="M11124 4574 c-4 -10 -18 -43 -31 -73 -13 -30 -22 -56 -20 -58 2 -2
18 29 36 68 17 40 29 74 26 77 -2 3 -8 -4 -11 -14z"/>
<path d="M11365 4520 c-19 -38 -33 -70 -30 -70 2 0 21 32 40 70 19 39 33 70
30 70 -2 0 -21 -31 -40 -70z"/>
<path d="M9766 4540 c-22 -56 -19 -65 5 -11 11 24 18 46 15 48 -2 2 -11 -14
-20 -37z"/>
<path d="M11301 4553 c-1 -6 -4 -20 -7 -30 -5 -17 -5 -17 6 0 6 10 9 23 6 30
-3 9 -5 9 -5 0z"/>
<path d="M9730 4437 c0 -3 -9 -30 -21 -59 -11 -29 -16 -48 -11 -43 14 15 44
97 37 103 -3 3 -5 2 -5 -1z"/>
<path d="M10776 4423 c-6 -14 -5 -15 5 -6 7 7 10 15 7 18 -3 3 -9 -2 -12 -12z"/>
<path d="M11049 4404 c-5 -15 -12 -31 -16 -37 -3 -6 -1 -7 4 -4 11 7 36 67 27
67 -2 0 -9 -12 -15 -26z"/>
<path d="M10282 4375 c-12 -25 -20 -45 -17 -45 7 0 47 81 43 86 -3 2 -14 -17
-26 -41z"/>
<path d="M11142 4375 c-17 -37 -14 -45 4 -12 9 16 14 31 11 33 -2 2 -9 -7 -15
-21z"/>
<path d="M9661 4269 c-12 -29 -20 -54 -18 -56 2 -2 14 20 26 48 12 29 20 54
18 56 -2 2 -14 -20 -26 -48z"/>
<path d="M10215 4250 c-19 -38 -33 -70 -30 -70 2 0 21 32 40 70 19 39 33 70
30 70 -2 0 -21 -31 -40 -70z"/>
<path d="M11076 4224 c-20 -48 -35 -89 -32 -91 2 -2 20 35 40 83 20 48 35 89
33 91 -2 2 -20 -36 -41 -83z"/>
<path d="M11006 4283 c-6 -14 -5 -15 5 -6 7 7 10 15 7 18 -3 3 -9 -2 -12 -12z"/>
<path d="M10830 4187 c-33 -51 -90 -161 -90 -171 0 -6 20 26 44 71 23 45 49
89 56 98 7 8 11 17 9 20 -3 2 -11 -6 -19 -18z"/>
<path d="M10150 4109 c-7 -11 -10 -23 -7 -25 2 -2 9 7 15 21 14 30 7 33 -8 4z"/>
<path d="M10996 4013 c-6 -14 -5 -15 5 -6 7 7 10 15 7 18 -3 3 -9 -2 -12 -12z"/>
<path d="M10679 3913 c-29 -49 -59 -99 -67 -113 -9 -14 -10 -20 -4 -15 20 18
138 215 129 215 -3 0 -29 -39 -58 -87z"/>
<path d="M10561 3704 c-12 -20 -20 -38 -18 -40 2 -2 14 14 26 36 28 50 21 53
-8 4z"/>
<path d="M3961 5780 c0 -8 15 -78 34 -155 18 -77 34 -132 34 -122 1 19 -41
210 -58 262 -5 17 -9 23 -10 15z"/>
<path d="M4032 5446 c1 -12 -21 -57 -48 -101 -53 -87 -64 -111 -148 -310 -60
-143 -73 -186 -112 -355 -32 -141 -40 -257 -22 -325 19 -73 38 -70 87 12 45
76 75 178 91 312 6 47 24 147 40 221 49 223 118 513 128 541 8 20 7 26 -4 26
-7 0 -13 -9 -12 -21z"/>
<path d="M6841 4285 c-1 -36 27 -153 43 -177 20 -31 14 -54 -51 -183 -57 -113
-170 -438 -207 -595 -28 -119 -41 -261 -28 -305 l8 -29 26 38 c39 57 141 365
198 596 17 69 35 141 40 161 6 20 10 46 10 59 0 12 9 63 21 112 l21 89 33 -21
c50 -31 85 -26 143 20 94 75 81 128 -22 85 -33 -14 -41 -14 -91 3 -54 19 -104
55 -106 76 0 6 -9 29 -19 51 -12 27 -19 33 -19 20z"/>
<path d="M7726 11627 c-62 -131 -114 -317 -89 -317 18 0 103 219 103 264 0 12
9 49 19 84 11 34 17 62 15 62 -2 0 -23 -42 -48 -93z"/>
<path d="M7830 11483 c-55 -164 -54 -162 -42 -143 15 23 94 261 89 266 -2 3
-23 -53 -47 -123z"/>
<path d="M7957 11523 c-14 -48 -25 -89 -23 -91 3 -2 16 35 31 83 14 48 24 89
22 91 -2 2 -16 -35 -30 -83z"/>
<path d="M8125 11543 c-9 -32 -19 -67 -22 -78 -3 -11 -3 -17 1 -14 9 8 47 142
42 147 -2 2 -12 -23 -21 -55z"/>
<path d="M8216 11494 c-9 -26 -14 -49 -12 -51 2 -2 11 17 20 43 9 26 14 49 12
51 -2 2 -11 -17 -20 -43z"/>
<path d="M8712 11515 c0 -16 2 -22 5 -12 2 9 2 23 0 30 -3 6 -5 -1 -5 -18z"/>
<path d="M7632 11465 c-30 -62 -27 -71 4 -12 14 27 24 51 22 53 -3 2 -14 -17
-26 -41z"/>
<path d="M8671 11314 c-18 -91 -31 -167 -29 -170 3 -2 19 71 37 162 18 91 30
168 28 170 -2 3 -19 -70 -36 -162z"/>
<path d="M8081 11394 c-7 -25 -10 -48 -8 -51 3 -2 10 17 16 43 7 25 10 48 8
51 -3 2 -10 -17 -16 -43z"/>
<path d="M8256 11374 c-14 -37 -24 -69 -22 -71 2 -2 15 26 30 63 14 37 24 69
22 71 -2 2 -15 -26 -30 -63z"/>
<path d="M7912 11383 c-15 -48 -8 -55 8 -8 7 20 10 38 8 41 -3 2 -10 -13 -16
-33z"/>
<path d="M9041 11379 c-6 -18 -11 -39 -10 -48 0 -9 7 4 14 29 16 51 13 67 -4
19z"/>
<path d="M7566 11315 c-9 -26 -7 -32 5 -12 6 10 9 21 6 23 -2 3 -7 -2 -11 -11z"/>
<path d="M8051 11284 c0 -11 3 -14 6 -6 3 7 2 16 -1 19 -3 4 -6 -2 -5 -13z"/>
<path d="M8216 11275 c-9 -26 -7 -32 5 -12 6 10 9 21 6 23 -2 3 -7 -2 -11 -11z"/>
<path d="M8781 11229 c-27 -81 -20 -88 9 -9 12 33 20 63 17 66 -2 3 -14 -23
-26 -57z"/>
<path d="M9637 11228 c-10 -33 -16 -62 -14 -64 2 -2 12 23 22 56 10 33 16 62
14 64 -2 3 -12 -23 -22 -56z"/>
<path d="M8976 11154 c-21 -64 -36 -117 -34 -119 2 -2 21 48 42 111 21 64 36
117 34 119 -2 2 -21 -48 -42 -111z"/>
<path d="M9176 11235 c-9 -26 -7 -32 5 -12 6 10 9 21 6 23 -2 3 -7 -2 -11 -11z"/>
<path d="M9136 11094 c-9 -26 -14 -49 -12 -51 2 -2 11 17 20 43 9 26 14 49 12
51 -2 2 -11 -17 -20 -43z"/>
<path d="M8626 11093 c-4 -21 -9 -47 -12 -58 -4 -16 -3 -17 4 -5 11 17 26 100
19 100 -3 0 -8 -17 -11 -37z"/>
<path d="M9871 11118 c0 -9 -4 -25 -7 -35 -5 -17 -5 -17 6 0 6 10 9 25 7 35
-4 15 -5 15 -6 0z"/>
<path d="M9106 11015 c-9 -26 -7 -32 5 -12 6 10 9 21 6 23 -2 3 -7 -2 -11 -11z"/>
<path d="M9821 10959 c-12 -39 -20 -73 -18 -76 3 -2 15 28 26 68 12 39 20 73
18 76 -3 2 -15 -28 -26 -68z"/>
<path d="M9557 10943 c-9 -31 -15 -58 -13 -61 2 -2 12 22 21 53 9 32 14 59 12
61 -2 3 -11 -21 -20 -53z"/>
<path d="M10611 10974 c0 -11 3 -14 6 -6 3 7 2 16 -1 19 -3 4 -6 -2 -5 -13z"/>
<path d="M10075 10968 c-32 -89 -43 -129 -30 -117 7 7 44 129 39 129 -3 0 -7
-6 -9 -12z"/>
<path d="M10602 10930 c0 -14 2 -19 5 -12 2 6 2 18 0 25 -3 6 -5 1 -5 -13z"/>
<path d="M10276 10778 c-31 -135 -41 -185 -34 -178 8 7 70 282 65 286 -2 3
-16 -46 -31 -108z"/>
<path d="M9526 10844 c-4 -14 -5 -28 -3 -31 3 -2 8 8 11 23 4 14 5 28 3 31 -3
2 -8 -8 -11 -23z"/>
<path d="M9771 10804 c-12 -37 -19 -69 -17 -71 3 -3 14 26 25 63 11 37 19 70
16 72 -2 2 -13 -26 -24 -64z"/>
<path d="M10581 10804 c0 -11 3 -14 6 -6 3 7 2 16 -1 19 -3 4 -6 -2 -5 -13z"/>
<path d="M9511 10793 c-1 -6 -4 -20 -7 -30 -5 -17 -5 -17 6 0 6 10 9 23 6 30
-3 9 -5 9 -5 0z"/>
<path d="M10571 10754 c0 -11 3 -14 6 -6 3 7 2 16 -1 19 -3 4 -6 -2 -5 -13z"/>
<path d="M10011 10744 c0 -11 3 -14 6 -6 3 7 2 16 -1 19 -3 4 -6 -2 -5 -13z"/>
<path d="M10550 10665 c-6 -31 -10 -59 -7 -61 2 -2 9 21 16 52 6 32 9 59 7 61
-2 3 -10 -21 -16 -52z"/>
<path d="M10807 10608 c-33 -124 -42 -165 -34 -158 8 8 68 241 65 252 -2 5
-16 -37 -31 -94z"/>
<path d="M10231 10583 c-1 -6 -4 -20 -7 -30 -5 -17 -5 -17 6 0 6 10 9 23 6 30
-3 9 -5 9 -5 0z"/>
<path d="M10531 10574 c0 -11 3 -14 6 -6 3 7 2 16 -1 19 -3 4 -6 -2 -5 -13z"/>
<path d="M10521 10534 c0 -11 3 -14 6 -6 3 7 2 16 -1 19 -3 4 -6 -2 -5 -13z"/>
<path d="M11227 10415 c-21 -70 -36 -129 -33 -133 3 -3 6 -3 6 1 0 3 16 58 35
123 20 64 34 121 33 126 -2 5 -20 -48 -41 -117z"/>
<path d="M11581 10514 c0 -11 3 -14 6 -6 3 7 2 16 -1 19 -3 4 -6 -2 -5 -13z"/>
<path d="M11526 10334 c-26 -86 -45 -158 -42 -161 2 -3 10 15 16 38 7 24 18
62 25 84 29 87 56 187 52 191 -2 2 -25 -66 -51 -152z"/>
<path d="M10761 10424 c0 -11 3 -14 6 -6 3 7 2 16 -1 19 -3 4 -6 -2 -5 -13z"/>
<path d="M11897 10333 c-4 -3 -7 -16 -6 -27 0 -19 1 -19 10 3 10 24 8 36 -4
24z"/>
<path d="M11176 10244 c-4 -14 -5 -28 -3 -31 3 -2 8 8 11 23 4 14 5 28 3 31
-3 2 -8 -8 -11 -23z"/>
<path d="M12499 10179 c-22 -45 -39 -83 -37 -85 2 -2 23 35 46 81 23 47 40 85
37 85 -3 0 -23 -36 -46 -81z"/>
<path d="M11836 10124 c-10 -31 -16 -58 -14 -60 3 -2 12 21 22 52 10 31 16 58
14 60 -3 2 -12 -21 -22 -52z"/>
<path d="M12090 10159 c-19 -35 -61 -151 -56 -156 2 -2 16 29 31 69 15 40 32
81 37 91 12 24 1 21 -12 -4z"/>
<path d="M11466 10134 c-4 -14 -5 -28 -3 -31 3 -2 8 8 11 23 4 14 5 28 3 31
-3 2 -8 -8 -11 -23z"/>
<path d="M12631 10114 c0 -11 3 -14 6 -6 3 7 2 16 -1 19 -3 4 -6 -2 -5 -13z"/>
<path d="M12806 10069 c-20 -69 -13 -76 9 -9 9 28 15 54 12 56 -3 3 -12 -18
-21 -47z"/>
<path d="M12622 10065 c0 -16 2 -22 5 -12 2 9 2 23 0 30 -3 6 -5 -1 -5 -18z"/>
<path d="M12446 10065 c-3 -9 -6 -22 -5 -28 0 -7 5 -1 10 12 5 13 8 26 5 28
-2 2 -6 -3 -10 -12z"/>
<path d="M12421 9999 c-5 -13 -19 -49 -31 -79 -12 -30 -18 -52 -14 -48 12 12
64 141 59 146 -2 3 -9 -6 -14 -19z"/>
<path d="M12612 9995 c0 -16 2 -22 5 -12 2 9 2 23 0 30 -3 6 -5 -1 -5 -18z"/>
<path d="M12766 9944 c-10 -31 -15 -58 -13 -61 3 -2 13 21 22 52 21 74 14 82
-9 9z"/>
<path d="M12602 9940 c0 -14 2 -19 5 -12 2 6 2 18 0 25 -3 6 -5 1 -5 -13z"/>
<path d="M12582 9755 c0 -16 2 -22 5 -12 2 9 2 23 0 30 -3 6 -5 -1 -5 -18z"/>
<path d="M12572 9695 c0 -16 2 -22 5 -12 2 9 2 23 0 30 -3 6 -5 -1 -5 -18z"/>
<path d="M13665 9262 c159 -77 391 -163 822 -301 272 -88 566 -162 1143 -290
445 -98 757 -149 1045 -171 83 -7 168 -15 189 -19 l40 -6 48 -120 c27 -66 58
-147 70 -180 25 -72 165 -354 217 -439 21 -34 61 -105 90 -159 28 -55 67 -122
86 -150 19 -29 35 -57 35 -64 0 -6 4 -15 10 -18 31 -19 -176 422 -265 565 -12
19 -45 87 -75 150 -29 63 -82 178 -117 255 -36 77 -67 145 -69 151 -3 7 12 14
38 18 109 17 139 46 59 57 -23 3 -47 11 -53 17 -7 7 -35 12 -64 12 -28 0 -68
7 -87 15 -20 8 -63 15 -96 15 -33 0 -72 5 -88 11 -29 11 -105 24 -238 39 -44
5 -89 14 -100 19 -11 5 -46 12 -78 15 -32 2 -64 9 -70 14 -7 5 -49 12 -95 14
-45 3 -88 10 -94 16 -7 7 -34 12 -60 12 -27 0 -65 7 -85 15 -19 8 -58 15 -85
15 -27 0 -59 5 -71 12 -12 6 -48 15 -82 19 -33 5 -100 15 -150 24 -49 9 -119
20 -155 26 -36 6 -69 15 -74 20 -6 5 -30 9 -55 9 -26 0 -59 7 -75 15 -15 8
-48 15 -72 15 -25 0 -61 7 -81 15 -19 8 -53 15 -74 15 -21 0 -53 6 -71 14 -61
25 -103 38 -148 46 -25 5 -76 16 -115 25 -38 8 -92 20 -120 26 -27 6 -54 15
-60 20 -5 5 -18 9 -30 9 -11 0 -33 7 -49 15 -15 8 -40 15 -55 15 -14 1 -37 7
-51 15 -14 8 -37 14 -51 15 -15 0 -40 7 -55 15 -16 8 -38 15 -50 15 -11 0 -29
7 -40 15 -10 8 -31 15 -46 15 -15 0 -29 4 -32 9 -3 4 -23 11 -44 14 -21 4 -51
13 -68 21 -93 45 -227 96 -250 96 -5 0 63 -35 151 -78z"/>
<path d="M13621 8926 c10 -9 89 -46 89 -41 0 5 -75 45 -86 45 -4 0 -5 -2 -3
-4z"/>
<path d="M13760 8866 c0 -8 101 -58 106 -53 3 2 -12 12 -33 22 -21 10 -46 22
-55 27 -10 5 -18 6 -18 4z"/>
<path d="M14390 8824 c0 -7 52 -25 57 -20 2 2 -10 8 -26 14 -17 6 -31 9 -31 6z"/>
<path d="M13880 8805 c0 -8 121 -66 129 -63 4 2 -23 17 -61 35 -37 18 -68 30
-68 28z"/>
<path d="M14461 8796 c9 -9 132 -57 136 -52 4 3 -23 15 -122 52 -11 4 -17 4
-14 0z"/>
<path d="M13730 8668 c184 -93 283 -139 288 -134 2 3 -36 23 -85 46 -48 23
-135 66 -193 95 -58 29 -116 56 -130 60 -14 4 40 -26 120 -67z"/>
<path d="M14170 8665 c74 -36 142 -65 150 -65 8 0 -23 18 -70 39 -47 21 -108
50 -137 64 -29 15 -58 27 -65 27 -7 0 48 -29 122 -65z"/>
<path d="M14658 8723 c7 -3 16 -2 19 1 4 3 -2 6 -13 5 -11 0 -14 -3 -6 -6z"/>
<path d="M14722 8700 c24 -15 105 -43 93 -32 -9 8 -23 14 -90 37 -18 6 -18 5
-3 -5z"/>
<path d="M14380 8575 c33 -19 49 -19 24 0 -10 8 -26 14 -34 14 -9 0 -4 -6 10
-14z"/>
<path d="M14435 8553 c13 -13 187 -85 192 -79 2 2 -36 20 -84 41 -115 48 -120
50 -108 38z"/>
<path d="M14030 8525 c0 -2 32 -21 70 -40 39 -19 70 -33 70 -30 0 2 -31 21
-70 40 -38 19 -70 33 -70 30z"/>
<path d="M17222 8368 c216 -318 337 -548 468 -888 65 -172 66 -176 32 -185
-44 -11 -212 -87 -212 -96 0 -13 16 -11 58 7 20 8 72 28 115 44 l78 29 18 -42
c10 -23 20 -49 24 -57 9 -25 8 19 -3 90 -11 68 -19 96 -70 245 -18 50 -36 106
-42 125 -5 19 -16 42 -24 51 -8 8 -14 23 -14 33 0 9 -7 19 -15 22 -8 3 -17 21
-21 40 -3 18 -12 38 -20 45 -8 6 -14 19 -14 28 0 9 -9 30 -20 46 -11 17 -20
38 -20 48 0 9 -4 17 -9 17 -5 0 -21 25 -36 55 -15 29 -50 85 -76 122 -27 37
-53 78 -58 89 -5 12 -17 24 -25 27 -9 4 -16 13 -16 20 0 8 -9 22 -20 32 -11
10 -20 24 -20 31 0 7 -6 17 -13 21 -7 4 -34 34 -61 66 -80 94 -73 65 16 -65z"/>
<path d="M14650 8460 c8 -5 20 -10 25 -10 6 0 3 5 -5 10 -8 5 -19 10 -25 10
-5 0 -3 -5 5 -10z"/>
<path d="M14200 8445 c0 -3 24 -16 53 -30 29 -14 42 -18 28 -8 -27 20 -81 45
-81 38z"/>
<path d="M14736 8432 c14 -13 276 -114 281 -109 2 3 -17 13 -44 23 -26 9 -90
35 -142 56 -96 39 -112 44 -95 30z"/>
<path d="M14310 8385 c0 -3 33 -21 73 -41 83 -42 80 -32 -6 15 -60 32 -67 35
-67 26z"/>
<path d="M15038 8313 c7 -3 16 -2 19 1 4 3 -2 6 -13 5 -11 0 -14 -3 -6 -6z"/>
<path d="M13480 8291 c8 -5 31 -11 50 -15 24 -4 28 -3 15 2 -31 14 -83 24 -65
13z"/>
<path d="M14491 8296 c10 -9 89 -46 89 -41 0 5 -75 45 -86 45 -4 0 -5 -2 -3
-4z"/>
<path d="M15125 8286 c52 -22 316 -108 320 -104 5 4 -324 118 -340 118 -5 -1
4 -7 20 -14z"/>
<path d="M16235 8256 c28 -25 54 -45 59 -46 11 0 -69 71 -93 83 -9 5 7 -12 34
-37z"/>
<path d="M13571 8266 c3 -3 119 -37 284 -83 11 -3 17 -3 14 1 -7 7 -275 86
-292 86 -6 0 -8 -2 -6 -4z"/>
<path d="M14590 8245 c0 -7 101 -57 106 -53 2 2 -21 16 -51 31 -30 15 -55 25
-55 22z"/>
<path d="M16325 8180 c3 -5 11 -10 16 -10 6 0 7 5 4 10 -3 6 -11 10 -16 10 -6
0 -7 -4 -4 -10z"/>
<path d="M13888 8173 c6 -2 18 -2 25 0 6 3 1 5 -13 5 -14 0 -19 -2 -12 -5z"/>
<path d="M15468 8173 c7 -3 16 -2 19 1 4 3 -2 6 -13 5 -11 0 -14 -3 -6 -6z"/>
<path d="M13980 8154 c53 -22 376 -134 385 -134 27 1 -307 124 -365 134 -19 3
-28 3 -20 0z"/>
<path d="M15558 8153 c7 -3 16 -2 19 1 4 3 -2 6 -13 5 -11 0 -14 -3 -6 -6z"/>
<path d="M16360 8158 c0 -2 28 -28 63 -57 l62 -54 -45 47 c-39 41 -80 74 -80
64z"/>
<path d="M15591 8146 c14 -15 466 -132 476 -123 2 3 -11 8 -29 12 -29 6 -383
97 -433 112 -11 3 -17 3 -14 -1z"/>
<path d="M13260 8050 c0 -5 19 -14 43 -20 148 -38 635 -209 661 -232 6 -4 19
-8 29 -8 10 0 31 -6 45 -14 15 -7 61 -30 102 -49 107 -51 258 -134 301 -165
146 -106 209 -164 314 -287 28 -32 67 -77 87 -99 21 -23 38 -46 38 -53 0 -7 9
-17 20 -23 11 -6 20 -19 20 -29 0 -10 7 -24 15 -31 8 -7 15 -18 15 -25 0 -6 9
-22 20 -35 11 -13 20 -29 20 -37 0 -7 9 -21 20 -30 11 -10 20 -27 20 -39 0
-12 7 -27 15 -34 8 -7 17 -27 21 -46 3 -18 12 -38 20 -45 9 -7 14 -32 14 -68
0 -37 7 -69 20 -94 12 -21 20 -56 20 -82 0 -27 7 -57 18 -72 15 -23 17 -58 20
-257 3 -237 0 -278 -21 -273 -8 1 -13 -21 -15 -75 -2 -59 -6 -78 -17 -78 -17
0 -30 -59 -21 -94 8 -32 -3 -86 -17 -83 -7 1 -14 -22 -18 -55 -3 -32 -14 -69
-23 -82 -9 -15 -16 -46 -16 -73 0 -31 -7 -59 -20 -78 -13 -19 -20 -47 -20 -77
0 -29 -5 -50 -14 -55 -7 -4 -15 -31 -18 -61 -3 -29 -12 -60 -22 -70 -9 -11
-16 -36 -16 -58 0 -22 -9 -52 -20 -69 -11 -16 -20 -42 -20 -57 0 -15 -6 -33
-14 -40 -7 -8 -17 -33 -21 -56 -3 -22 -13 -46 -21 -53 -8 -6 -14 -23 -14 -36
0 -14 -9 -36 -20 -50 -11 -14 -20 -38 -20 -53 0 -15 -7 -33 -15 -40 -8 -7 -15
-20 -15 -30 0 -9 -9 -29 -20 -43 -11 -14 -20 -39 -20 -56 0 -19 -8 -38 -20
-48 -11 -10 -20 -29 -20 -44 0 -15 -6 -32 -14 -38 -8 -7 -17 -28 -21 -47 -3
-19 -13 -38 -21 -41 -7 -3 -14 -17 -14 -33 0 -15 -9 -35 -20 -45 -11 -10 -20
-30 -20 -45 0 -16 -6 -30 -14 -33 -8 -3 -17 -20 -21 -37 -4 -17 -13 -34 -21
-37 -8 -3 -14 -15 -14 -28 0 -12 -9 -34 -20 -48 -11 -14 -20 -35 -20 -46 0
-12 -6 -24 -14 -27 -8 -3 -18 -19 -21 -36 -4 -16 -13 -32 -21 -35 -8 -3 -14
-15 -14 -28 0 -12 -9 -30 -20 -40 -11 -10 -20 -28 -20 -40 0 -12 -9 -30 -20
-40 -11 -10 -20 -24 -20 -30 0 -7 -7 -18 -15 -25 -8 -7 -15 -21 -15 -31 0 -11
-9 -27 -20 -36 -11 -10 -20 -23 -20 -29 0 -16 -51 -94 -62 -94 -4 0 -8 -7 -8
-15 0 -8 -9 -23 -20 -32 -11 -10 -20 -24 -20 -31 0 -8 -9 -25 -20 -39 -11 -14
-20 -31 -20 -38 0 -7 -7 -15 -15 -19 -8 -3 -15 -12 -15 -19 0 -8 -9 -22 -20
-32 -11 -10 -20 -24 -20 -31 0 -7 -9 -18 -20 -24 -11 -6 -20 -17 -20 -26 0 -8
-7 -17 -15 -20 -8 -4 -15 -12 -15 -19 0 -6 -9 -20 -20 -30 -11 -10 -20 -23
-20 -28 0 -6 -7 -17 -15 -26 -47 -52 -55 -62 -55 -70 0 -4 -10 -19 -22 -33
-13 -14 -30 -35 -38 -47 -15 -23 -47 -62 -75 -92 -8 -9 -15 -20 -15 -25 0 -15
-81 -94 -96 -94 -7 0 -17 -7 -21 -15 -7 -12 -18 -13 -63 -4 -30 6 -84 14 -120
19 -95 12 -259 56 -276 73 -4 4 -19 7 -33 7 -14 0 -39 7 -55 15 -15 8 -39 15
-51 15 -13 0 -30 7 -39 15 -8 8 -24 15 -35 15 -11 0 -26 7 -35 15 -8 8 -21 15
-28 15 -8 0 -23 7 -34 15 -10 8 -27 15 -36 15 -10 0 -18 5 -18 10 0 6 -7 10
-16 10 -16 0 -47 12 -130 51 -23 10 -46 19 -53 19 -6 0 -11 5 -11 10 0 6 -10
10 -23 10 -13 0 -32 7 -43 15 -10 8 -27 15 -37 15 -11 0 -31 6 -45 14 -15 7
-45 22 -67 32 -22 11 -46 25 -53 31 -7 7 -21 13 -30 14 -9 0 -30 9 -47 19 -16
10 -48 28 -70 40 -22 12 -59 35 -83 51 -24 16 -45 29 -48 29 -3 0 -90 55 -192
123 -171 112 -291 181 -252 145 103 -96 375 -305 503 -386 50 -33 175 -101
277 -153 189 -97 217 -110 375 -181 125 -56 359 -132 488 -158 105 -21 305
-42 320 -33 4 2 7 -4 7 -13 0 -15 2 -16 18 -2 33 30 76 12 116 -48 20 -29 36
-56 36 -59 0 -26 388 -822 431 -885 9 -14 63 -106 119 -205 56 -99 119 -205
139 -235 42 -62 141 -228 141 -236 0 -3 -13 -17 -30 -31 -16 -13 -30 -28 -30
-32 0 -4 30 -6 68 -5 124 4 383 107 529 210 175 125 368 421 508 784 28 72
160 568 186 697 18 92 186 691 244 873 21 63 41 132 46 153 17 69 181 507 234
622 12 28 46 104 75 170 29 66 70 161 92 210 156 357 249 556 368 790 384 749
488 947 575 1095 18 30 47 84 65 120 18 36 57 106 85 155 130 226 308 556 302
562 -3 2 -26 -35 -53 -84 -26 -48 -73 -131 -105 -184 -33 -53 -59 -99 -59
-102 0 -3 -33 -63 -73 -134 -40 -70 -97 -173 -127 -228 -29 -55 -54 -101 -55
-103 -1 -1 -53 -4 -116 -8 -63 -3 -170 -11 -239 -19 -69 -8 -177 -19 -240 -25
-63 -6 -257 -26 -430 -45 -334 -36 -465 -48 -730 -65 -91 -6 -200 -13 -242
-16 -78 -6 -102 -19 -50 -27 18 -3 14 -4 -16 -6 -24 0 -52 -6 -64 -12 -11 -6
-22 -9 -24 -6 -3 2 5 51 16 107 14 71 18 105 10 110 -5 3 -15 65 -20 136 -12
156 -40 318 -70 397 -38 100 -129 269 -188 346 -245 320 -456 474 -877 643
-142 57 -597 198 -639 198 -12 0 -50 9 -84 20 -72 23 -82 24 -82 10z"/>
<path d="M14415 8000 c110 -53 259 -120 264 -120 13 1 -110 64 -196 101 -95
40 -139 53 -68 19z"/>
<path d="M16118 8013 c6 -2 18 -2 25 0 6 3 1 5 -13 5 -14 0 -19 -2 -12 -5z"/>
<path d="M16565 7971 c27 -28 51 -51 53 -51 8 0 -54 67 -78 85 -14 10 -3 -5
25 -34z"/>
<path d="M16165 8004 c26 -10 306 -71 298 -64 -4 4 -71 21 -148 39 -127 28
-178 37 -150 25z"/>
<path d="M14710 7866 c0 -2 29 -20 65 -40 36 -20 77 -43 90 -52 14 -9 25 -12
25 -8 0 5 -37 30 -83 57 -78 44 -97 53 -97 43z"/>
<path d="M16678 7855 c13 -25 52 -62 52 -48 0 5 -14 22 -31 39 -23 21 -29 23
-21 9z"/>
<path d="M15455 7852 c6 -5 42 -26 80 -47 39 -20 61 -29 50 -20 -22 19 -146
83 -130 67z"/>
<path d="M16820 7693 c36 -39 67 -69 69 -67 5 5 -86 104 -114 124 -11 8 9 -18
45 -57z"/>
<path d="M14955 7718 c16 -13 54 -44 83 -70 29 -27 56 -48 60 -48 12 1 -111
110 -143 126 l-30 15 30 -23z"/>
<path d="M15740 7684 c0 -8 63 -57 99 -78 22 -12 7 2 -51 48 -27 21 -48 34
-48 30z"/>
<path d="M15138 7562 c31 -33 136 -158 157 -187 8 -11 15 -15 15 -9 0 14 -178
224 -190 224 -5 0 4 -13 18 -28z"/>
<path d="M16945 7557 c15 -21 30 -35 33 -32 3 3 -9 20 -27 38 l-34 32 28 -38z"/>
<path d="M15942 7501 c40 -43 75 -77 77 -75 6 5 -130 154 -141 154 -6 0 23
-35 64 -79z"/>
<path d="M16330 7436 c0 -2 26 -25 58 -52 l57 -47 -50 51 c-43 45 -65 62 -65
48z"/>
<path d="M16030 7407 c0 -13 64 -96 79 -102 8 -3 -3 16 -24 42 -51 64 -55 68
-55 60z"/>
<path d="M15320 7332 c6 -13 14 -21 18 -18 3 4 -2 14 -12 24 -18 16 -18 16 -6
-6z"/>
<path d="M16504 7278 c84 -75 104 -82 26 -10 -36 34 -69 61 -74 62 -6 0 16
-24 48 -52z"/>
<path d="M15691 7294 c0 -11 3 -14 6 -6 3 7 2 16 -1 19 -3 4 -6 -2 -5 -13z"/>
<path d="M15371 7243 c29 -53 57 -93 48 -68 -16 40 -65 125 -72 125 -5 0 6
-26 24 -57z"/>
<path d="M15706 7245 c11 -48 25 -76 18 -35 -4 19 -10 42 -15 50 -6 10 -7 5
-3 -15z"/>
<path d="M16645 7155 c60 -51 89 -65 40 -21 -27 25 -54 46 -60 46 -5 0 4 -11
20 -25z"/>
<path d="M16235 7104 c52 -94 65 -105 21 -17 -19 39 -41 75 -47 79 -6 4 6 -24
26 -62z"/>
<path d="M15741 7100 c0 -8 4 -24 9 -35 5 -13 9 -14 9 -5 0 8 -4 24 -9 35 -5
13 -9 14 -9 5z"/>
<path d="M16740 7076 c0 -2 8 -10 18 -17 15 -13 16 -12 3 4 -13 16 -21 21 -21
13z"/>
<path d="M15464 7045 c30 -83 61 -185 81 -270 13 -55 24 -92 24 -82 2 50 -79
340 -102 362 -7 7 -8 4 -3 -10z"/>
<path d="M15760 7036 c0 -4 16 -70 36 -147 20 -77 44 -183 54 -237 10 -53 19
-86 19 -73 1 33 -45 257 -76 366 -24 83 -33 109 -33 91z"/>
<path d="M16291 6994 c0 -11 3 -14 6 -6 3 7 2 16 -1 19 -3 4 -6 -2 -5 -13z"/>
<path d="M16885 6951 c30 -32 85 -77 85 -68 0 3 -26 26 -57 53 -40 33 -49 38
-28 15z"/>
<path d="M16320 6914 c1 -18 49 -168 49 -154 1 18 -36 150 -44 158 -3 3 -5 1
-5 -4z"/>
<path d="M16990 6860 c0 -5 5 -10 11 -10 5 0 7 5 4 10 -3 6 -8 10 -11 10 -2 0
-4 -4 -4 -10z"/>
<path d="M16376 6700 c3 -25 10 -61 14 -80 8 -28 8 -25 4 18 -3 29 -10 65 -15
80 -6 20 -7 16 -3 -18z"/>
<path d="M15571 6654 c0 -11 3 -14 6 -6 3 7 2 16 -1 19 -3 4 -6 -2 -5 -13z"/>
<path d="M16401 6564 c0 -11 3 -14 6 -6 3 7 2 16 -1 19 -3 4 -6 -2 -5 -13z"/>
<path d="M15872 6525 c0 -16 2 -22 5 -12 2 9 2 23 0 30 -3 6 -5 -1 -5 -18z"/>
<path d="M15882 6390 c0 -19 2 -27 5 -17 2 9 2 25 0 35 -3 9 -5 1 -5 -18z"/>
<path d="M15892 6320 c0 -19 2 -27 5 -17 2 9 2 25 0 35 -3 9 -5 1 -5 -18z"/>
<path d="M3499 4108 c0 -95 -5 -195 -10 -223 -20 -98 -22 -257 -5 -308 9 -26
16 -70 16 -98 0 -32 6 -56 15 -66 9 -8 19 -28 22 -44 6 -33 32 -39 54 -12 19
22 16 204 -5 353 -9 63 -21 169 -26 235 -12 142 -42 335 -52 335 -5 0 -8 -78
-9 -172z"/>
<path d="M3613 3985 c0 -44 2 -61 4 -37 2 23 2 59 0 80 -2 20 -4 1 -4 -43z"/>
<path d="M3927 3938 c-3 -18 -13 -85 -23 -148 -9 -63 -29 -198 -44 -300 -27
-176 -29 -243 -8 -256 42 -26 68 150 83 569 7 160 4 204 -8 135z"/>
<path d="M3623 3780 c0 -47 2 -66 4 -42 2 23 2 61 0 85 -2 23 -4 4 -4 -43z"/>
<path d="M4182 3700 c0 -14 2 -19 5 -12 2 6 2 18 0 25 -3 6 -5 1 -5 -13z"/>
<path d="M4150 3445 c-7 -53 -10 -98 -8 -101 3 -2 11 39 18 91 6 53 10 99 7
101 -2 3 -10 -38 -17 -91z"/>
<path d="M4396 3443 c-16 -110 -37 -304 -34 -315 3 -7 14 68 26 167 12 98 20
180 18 183 -2 2 -7 -14 -10 -35z"/>
<path d="M4132 3300 c0 -19 2 -27 5 -17 2 9 2 25 0 35 -3 9 -5 1 -5 -18z"/>
<path d="M5041 3263 c-6 -21 -11 -47 -11 -58 0 -12 -13 -63 -29 -115 -36 -114
-75 -271 -91 -359 -15 -84 3 -204 26 -174 27 35 52 140 73 308 13 94 30 228
40 298 17 125 13 176 -8 100z"/>
<path d="M4121 3244 c0 -11 3 -14 6 -6 3 7 2 16 -1 19 -3 4 -6 -2 -5 -13z"/>
<path d="M4732 3215 c0 -16 2 -22 5 -12 2 9 2 23 0 30 -3 6 -5 -1 -5 -18z"/>
<path d="M4706 3065 c-10 -66 -20 -131 -23 -145 -3 -14 -3 -22 1 -19 8 8 48
248 44 269 -2 8 -12 -39 -22 -105z"/>
<path d="M5256 2955 c-21 -114 -35 -209 -32 -212 3 -4 6 -2 6 4 0 6 16 95 35
198 20 103 35 194 33 202 -2 7 -20 -79 -42 -192z"/>
<path d="M3801 3054 c103 -95 430 -341 619 -465 173 -112 181 -117 200 -126 8
-4 42 -23 75 -43 100 -60 409 -209 570 -274 50 -20 99 -41 110 -45 34 -14 255
-97 525 -196 202 -74 872 -274 990 -296 25 -4 124 -26 220 -47 96 -22 222 -48
280 -57 58 -9 128 -20 155 -25 56 -10 196 -24 745 -75 570 -54 752 -78 870
-115 37 -11 110 -22 170 -26 99 -6 107 -5 140 18 40 27 53 73 23 82 -10 3 -84
17 -166 31 -81 14 -159 30 -174 36 -90 34 -383 74 -913 124 -488 45 -457 42
-665 76 -397 65 -695 123 -819 159 -72 20 -174 50 -226 65 -168 48 -611 195
-760 252 -80 30 -161 60 -180 65 -53 16 -476 185 -555 223 -395 188 -488 238
-830 445 -88 54 -196 119 -240 145 -44 27 -115 70 -158 97 -43 26 -80 48 -82
48 -3 0 32 -34 76 -76z"/>
<path d="M4352 3080 c0 -19 2 -27 5 -17 2 9 2 25 0 35 -3 9 -5 1 -5 -18z"/>
<path d="M5752 2885 c0 -16 2 -22 5 -12 2 9 2 23 0 30 -3 6 -5 -1 -5 -18z"/>
<path d="M11855 2835 c51 -43 116 -87 121 -82 3 2 -17 19 -44 36 -27 17 -57
40 -67 51 -10 11 -23 20 -29 20 -6 0 3 -11 19 -25z"/>
<path d="M5515 2795 c-3 -31 -4 -59 -2 -62 3 -2 9 21 12 52 4 31 5 58 2 61 -2
3 -8 -20 -12 -51z"/>
<path d="M6067 2763 c-4 -3 -7 -18 -6 -32 1 -26 1 -25 10 3 9 31 7 41 -4 29z"/>
<path d="M11690 2736 c0 -2 8 -10 18 -17 15 -13 16 -12 3 4 -13 16 -21 21 -21
13z"/>
<path d="M5205 2685 c-3 -26 -4 -49 -2 -51 3 -3 8 16 12 41 3 26 4 49 2 51 -3
3 -8 -16 -12 -41z"/>
<path d="M12020 2723 c0 -9 130 -96 135 -91 2 2 -28 25 -66 51 -38 27 -69 45
-69 40z"/>
<path d="M5481 2586 c-13 -76 -21 -139 -19 -142 7 -6 51 253 46 268 -2 6 -15
-50 -27 -126z"/>
<path d="M5716 2592 c-10 -74 -15 -136 -12 -139 3 -4 6 0 6 8 0 7 7 62 16 121
8 59 14 116 12 125 -2 10 -12 -42 -22 -115z"/>
<path d="M6497 2644 c-34 -138 -40 -162 -78 -300 -41 -149 -50 -242 -25 -263
15 -13 24 -5 49 44 16 32 52 241 62 360 4 39 11 93 16 120 5 28 5 63 1 79 -7
25 -9 22 -25 -40z"/>
<path d="M11730 2703 c1 -10 50 -46 56 -41 2 3 -10 14 -26 27 -17 12 -30 18
-30 14z"/>
<path d="M6042 2639 c-17 -91 -13 -120 4 -34 8 39 13 77 11 85 -2 8 -9 -15
-15 -51z"/>
<path d="M11694 2625 c11 -8 25 -15 30 -15 6 0 2 7 -8 15 -11 8 -25 15 -30 15
-6 0 -2 -7 8 -15z"/>
<path d="M5192 2600 c0 -14 2 -19 5 -12 2 6 2 18 0 25 -3 6 -5 1 -5 -13z"/>
<path d="M11790 2583 c8 -3 27 -12 43 -20 15 -7 27 -11 27 -9 0 8 -58 36 -72
35 -9 0 -8 -2 2 -6z"/>
<path d="M11896 2531 c11 -12 124 -63 124 -56 0 6 -116 65 -127 65 -4 0 -3 -4
3 -9z"/>
<path d="M6022 2485 c0 -16 2 -22 5 -12 2 9 2 23 0 30 -3 6 -5 -1 -5 -18z"/>
<path d="M12069 2450 c24 -11 46 -18 49 -16 5 6 -65 36 -82 36 -6 0 9 -9 33
-20z"/>
<path d="M6001 2389 c-7 -33 -10 -63 -8 -65 2 -3 10 23 16 57 7 33 10 63 8 65
-2 3 -10 -23 -16 -57z"/>
<path d="M11390 2440 c87 -12 198 -20 169 -11 -14 5 -70 11 -125 14 -70 4 -83
3 -44 -3z"/>
<path d="M5691 2424 c0 -11 3 -14 6 -6 3 7 2 16 -1 19 -3 4 -6 -2 -5 -13z"/>
<path d="M6711 2384 c-7 -25 -10 -48 -8 -51 3 -2 10 17 16 43 7 25 10 48 8 51
-3 2 -10 -17 -16 -43z"/>
<path d="M12135 2422 c16 -15 188 -103 193 -98 2 3 -42 28 -99 56 -57 29 -99
48 -94 42z"/>
<path d="M7040 2361 c-6 -28 -10 -56 -8 -62 2 -7 10 14 17 45 7 32 11 60 8 62
-3 3 -10 -18 -17 -45z"/>
<path d="M12650 2395 c0 -2 18 -14 40 -25 22 -11 40 -18 40 -15 0 2 -18 14
-40 25 -22 11 -40 18 -40 15z"/>
<path d="M12341 2316 c29 -26 603 -297 626 -296 11 1 -52 32 -172 87 -55 25
-178 83 -273 129 -153 74 -196 93 -181 80z"/>
<path d="M11580 2306 c0 -2 30 -14 68 -27 92 -31 328 -134 371 -162 20 -13 67
-44 106 -68 87 -54 191 -157 275 -269 103 -139 178 -208 288 -264 62 -32 44
-9 -21 28 -88 48 -156 112 -242 225 -156 205 -251 284 -485 401 -143 71 -360
153 -360 136z"/>
<path d="M12845 2296 c11 -7 43 -24 70 -36 28 -12 62 -29 78 -36 15 -8 27 -12
27 -9 0 5 -176 95 -187 95 -4 0 1 -6 12 -14z"/>
<path d="M6681 2264 c0 -11 3 -14 6 -6 3 7 2 16 -1 19 -3 4 -6 -2 -5 -13z"/>
<path d="M6982 2097 c-40 -157 -48 -196 -37 -186 8 9 86 330 83 341 -2 6 -23
-64 -46 -155z"/>
<path d="M10940 2241 c0 -8 219 -148 277 -177 18 -9 235 -151 250 -164 7 -5
14 -10 17 -10 3 0 25 -13 49 -30 25 -16 48 -30 51 -30 9 0 294 -207 351 -255
57 -48 200 -160 325 -255 47 -35 90 -69 97 -75 35 -30 43 -35 50 -35 5 0 20
-11 35 -25 24 -22 328 -243 374 -272 119 -74 188 -114 234 -135 272 -123 430
-155 730 -145 245 9 337 22 460 64 l105 37 -55 14 c-32 8 -157 17 -295 22
-332 11 -443 25 -672 86 -271 71 -399 143 -1033 578 -63 44 -117 82 -120 86
-7 10 -288 202 -397 272 -131 84 -385 228 -633 359 -52 27 -113 61 -135 74
-42 26 -65 31 -65 16z"/>
<path d="M7420 2215 c0 -8 2 -15 4 -15 2 0 6 7 10 15 3 8 1 15 -4 15 -6 0 -10
-7 -10 -15z"/>
<path d="M12341 2176 c2 -2 38 -31 79 -65 l75 -63 -69 66 c-37 36 -73 66 -79
66 -6 0 -8 -2 -6 -4z"/>
<path d="M7376 2084 c-14 -43 -24 -79 -22 -81 2 -2 16 31 30 73 14 43 24 79
22 81 -2 2 -16 -31 -30 -73z"/>
<path d="M7845 2097 c-26 -63 -95 -270 -91 -274 4 -5 15 23 75 195 22 61 38
112 35 112 -3 0 -11 -15 -19 -33z"/>
<path d="M8107 1912 c-54 -137 -93 -280 -84 -306 13 -39 152 361 145 421 -2
27 -13 8 -61 -115z"/>
<path d="M12510 2036 c0 -2 8 -10 18 -17 15 -13 16 -12 3 4 -13 16 -21 21 -21
13z"/>
<path d="M12980 2014 c0 -3 21 -14 48 -26 26 -11 85 -38 130 -59 46 -22 87
-39 90 -39 17 1 -245 130 -263 130 -3 0 -5 -3 -5 -6z"/>
<path d="M11600 1992 c0 -4 33 -29 72 -56 39 -27 68 -44 64 -38 -9 15 -136
103 -136 94z"/>
<path d="M12625 1936 c38 -36 73 -66 79 -66 5 0 7 2 5 4 -2 2 -38 31 -79 65
l-75 62 70 -65z"/>
<path d="M8362 1853 c-24 -52 -41 -98 -38 -100 3 -3 12 12 21 33 8 20 27 64
42 96 14 32 24 60 22 63 -3 2 -24 -39 -47 -92z"/>
<path d="M8783 1918 c-19 -25 -35 -61 -24 -54 6 4 18 20 26 37 16 30 15 38 -2
17z"/>
<path d="M13399 1815 c80 -41 148 -74 153 -73 10 4 -238 134 -272 143 -14 3
40 -28 119 -70z"/>
<path d="M9282 1842 c-12 -20 -47 -66 -77 -102 -65 -78 -125 -190 -125 -234
l1 -31 37 41 c41 46 187 294 197 337 10 38 -6 33 -33 -11z"/>
<path d="M11770 1876 c0 -2 30 -25 68 -50 52 -36 59 -39 30 -14 -36 33 -98 73
-98 64z"/>
<path d="M8686 1748 c-32 -54 -56 -101 -54 -103 2 -2 30 41 62 96 32 55 57
102 55 103 -2 2 -30 -41 -63 -96z"/>
<path d="M12740 1841 c0 -5 5 -13 10 -16 6 -3 10 -2 10 4 0 5 -4 13 -10 16 -5
3 -10 2 -10 -4z"/>
<path d="M8977 1731 c-20 -38 -37 -75 -37 -82 1 -8 19 21 41 65 50 97 46 111
-4 17z"/>
<path d="M9808 1692 c-56 -86 -91 -155 -51 -103 36 48 123 191 115 191 -4 0
-33 -40 -64 -88z"/>
<path d="M9516 1744 c-5 -14 -4 -15 9 -4 17 14 19 20 6 20 -5 0 -12 -7 -15
-16z"/>
<path d="M9471 1679 c-32 -55 -22 -59 12 -4 14 25 23 45 19 45 -5 0 -19 -18
-31 -41z"/>
<path d="M13610 1716 c0 -3 14 -12 30 -21 17 -9 30 -13 30 -11 0 3 -13 12 -30
21 -16 9 -30 13 -30 11z"/>
<path d="M12030 1693 c0 -9 130 -96 135 -91 2 2 -28 25 -66 51 -38 27 -69 45
-69 40z"/>
<path d="M12902 1694 c10 -9 128 -64 128 -59 0 3 -27 18 -60 35 -56 28 -80 37
-68 24z"/>
<path d="M9398 1555 c-15 -25 -24 -45 -20 -45 4 0 19 21 34 45 15 25 24 45 20
45 -4 0 -19 -21 -34 -45z"/>
<path d="M12200 1573 c14 -9 46 -31 73 -50 26 -18 47 -30 47 -25 -1 8 -123 92
-136 92 -4 0 3 -7 16 -17z"/>
<path d="M9712 1539 c-19 -30 -8 -34 12 -4 9 14 13 25 9 25 -5 0 -14 -9 -21
-21z"/>
<path d="M13190 1555 c0 -2 21 -14 48 -26 26 -12 50 -23 55 -26 4 -2 7 -2 7 1
0 6 -95 56 -105 56 -3 0 -5 -2 -5 -5z"/>
<path d="M13621 1547 c28 -23 129 -86 129 -80 0 8 -114 83 -127 83 -3 0 -4 -2
-2 -3z"/>
<path d="M12740 1495 c0 -7 64 -32 101 -39 20 -4 7 4 -31 19 -73 28 -70 27
-70 20z"/>
<path d="M13761 1456 c13 -12 119 -76 119 -72 0 8 -103 76 -114 76 -5 0 -7 -2
-5 -4z"/>
<path d="M12965 1420 c90 -31 302 -81 333 -79 9 0 -30 11 -88 25 -58 13 -145
36 -195 50 -127 37 -157 39 -50 4z"/>
<path d="M13460 1424 c0 -7 82 -45 91 -42 6 2 -12 13 -40 25 -28 12 -51 20
-51 17z"/>
<path d="M13897 1369 c12 -15 73 -53 73 -46 0 2 -19 17 -42 32 -24 16 -38 22
-31 14z"/>
<path d="M14020 1295 c0 -2 14 -13 30 -25 17 -12 30 -18 30 -13 0 4 -14 16
-30 25 -17 9 -30 15 -30 13z"/>
<path d="M13450 1050 l-255 -6 245 -1 c135 0 274 3 310 7 l65 7 -55 -1 c-30 0
-170 -3 -310 -6z"/>
</g>
</svg>
